<svg width="144" height="144" viewBox="0 0 144 144" fill="none" xmlns="http://www.w3.org/2000/svg">
<path opacity="0.15" d="M48 60C48 77.6731 65.9086 92 88 92C92.8925 92 97.5799 91.2973 101.913 90.0112L114.493 96.859C115.845 97.5951 117.487 96.5913 117.449 95.0522L117.119 81.9391C123.866 76.2106 128 68.4916 128 60C128 42.3269 110.091 28 88 28C65.9086 28 48 42.3269 48 60Z" fill="black"/>
<path opacity="0.25" fill-rule="evenodd" clip-rule="evenodd" d="M51.9662 46.0906C31.292 47.3309 15 61.1433 15 77.9999C15 86.4915 19.1344 94.2105 25.8806 99.939L25.5512 113.052C25.5126 114.591 27.1546 115.595 28.5068 114.859L41.087 108.011C45.4201 109.297 50.1075 110 55 110C70.8604 110 84.5648 102.615 91.0338 91.9092C90.0324 91.9693 89.0207 91.9999 88 91.9999C65.9086 91.9999 48 77.673 48 59.9999C48 55.0151 49.4247 50.2966 51.9662 46.0906Z" fill="black"/>
</svg>
