<svg width="144" height="144" viewBox="0 0 144 144" fill="none" xmlns="http://www.w3.org/2000/svg">
<path opacity="0.4" d="M48 60C48 77.6731 65.9086 92 88 92C92.8925 92 97.5799 91.2973 101.913 90.0112L114.493 96.859C115.845 97.5951 117.487 96.5913 117.449 95.0522L117.119 81.9391C123.866 76.2106 128 68.4916 128 60C128 42.3269 110.091 28 88 28C65.9086 28 48 42.3269 48 60Z" fill="white" fill-opacity="0.87"/>
<path fill-rule="evenodd" clip-rule="evenodd" d="M51.9662 46.0908C31.292 47.3312 15 61.1436 15 78.0002C15 86.4917 19.1344 94.2108 25.8806 99.9393L25.5512 113.052C25.5126 114.591 27.1546 115.595 28.5068 114.859L41.087 108.011C45.4201 109.297 50.1075 110 55 110C70.8604 110 84.5648 102.615 91.0338 91.9095C90.0324 91.9696 89.0207 92.0002 88 92.0002C65.9086 92.0002 48 77.6733 48 60.0002C48 55.0154 49.4247 50.2968 51.9662 46.0908Z" fill="#3F3F3F"/>
</svg>
