<svg width="144" height="144" viewBox="0 0 144 144" fill="none" xmlns="http://www.w3.org/2000/svg">
<path opacity="0.25" fill-rule="evenodd" clip-rule="evenodd" d="M62.7329 30.4097C65.2265 33.2657 67.6116 35.9974 69.9965 36H24C17.4 36 12 41.4 12 48V36C12 29.4 17.4 24 24 24H54C57.1366 24 60 27.2795 62.7329 30.4097ZM120 36H70C69.9988 36 69.9977 36 69.9965 36L120 36Z" fill="black"/>
<path opacity="0.15" d="M120 36H24C17.4 36 12 41.4 12 48V108C12 114.6 17.4 120 24 120H120C126.6 120 132 114.6 132 108V48C132 41.4 126.6 36 120 36Z" fill="black"/>
</svg>
