<svg width="120" height="80" viewBox="0 0 120 80" fill="none" xmlns="http://www.w3.org/2000/svg">
<path fill-rule="evenodd" clip-rule="evenodd" d="M67.4503 0.616345C62.9739 -0.193064 58.366 -0.20536 53.8845 0.580038C49.403 1.36544 45.1195 2.93613 41.2805 5.21721C34.4867 9.25398 29.4066 15.3278 26.9774 22.4289C20.1976 23.1168 13.8056 25.991 8.89867 30.6586C3.22414 36.0565 0 43.4177 0 51.134C0 58.8504 3.22414 66.2116 8.89867 71.6094C14.5669 77.0013 22.2169 80 30.1571 80H96.5026C102.735 80 108.711 77.5381 113.118 73.1558C117.524 68.7735 120 62.8298 120 56.6323C120 50.4348 117.524 44.4911 113.118 40.1088C108.711 35.7266 102.735 33.2646 96.5026 33.2646H95.7021C95.8226 30.7276 95.6093 28.1804 95.0618 25.6778C94.1508 21.5138 92.3375 17.5759 89.7482 14.0851C87.16 10.5956 83.8498 7.62387 80.0248 5.32153C76.2003 3.0195 71.9268 1.42577 67.4503 0.616345ZM74.851 33.149C73.3189 31.617 70.8349 31.617 69.3029 33.149L60 42.4519L50.6971 33.149C49.1651 31.617 46.6811 31.617 45.149 33.149C43.617 34.6811 43.617 37.1651 45.149 38.6971L54.4519 48L45.149 57.3029C43.617 58.8349 43.617 61.3189 45.149 62.851C46.6811 64.383 49.1651 64.383 50.6971 62.851L60 53.5481L69.3029 62.851C70.8349 64.383 73.3189 64.383 74.851 62.851C76.383 61.3189 76.383 58.8349 74.851 57.3029L65.5481 48L74.851 38.6971C76.383 37.1651 76.383 34.6811 74.851 33.149Z" fill="white" fill-opacity="0.87"/>
</svg>
