<svg width="144" height="144" viewBox="0 0 144 144" fill="none" xmlns="http://www.w3.org/2000/svg">
<g opacity="0.25">
<path fill-rule="evenodd" clip-rule="evenodd" d="M79.4503 32.6163C74.9739 31.8069 70.366 31.7946 65.8845 32.58C61.403 33.3654 57.1195 34.9361 53.2805 37.2172C46.4867 41.254 41.4066 47.3278 38.9774 54.4289C32.1976 55.1168 25.8056 57.991 20.8987 62.6586C15.2241 68.0565 12 75.4177 12 83.134C12 90.8504 15.2241 98.2116 20.8987 103.609C26.5669 109.001 34.2169 112 42.1571 112H108.503C114.735 112 120.711 109.538 125.118 105.156C129.524 100.773 132 94.8298 132 88.6323C132 82.4348 129.524 76.4911 125.118 72.1088C120.711 67.7266 114.735 65.2646 108.503 65.2646H107.702C107.823 62.7276 107.609 60.1804 107.062 57.6778C106.151 53.5138 104.337 49.5759 101.748 46.0851C99.16 42.5956 95.8498 39.6239 92.0248 37.3215C88.2003 35.0195 83.9268 33.4258 79.4503 32.6163ZM86.851 64.149C85.3189 62.617 82.8349 62.617 81.3029 64.149L72 73.4519L62.6971 64.149C61.1651 62.617 58.6811 62.617 57.149 64.149C55.617 65.6811 55.617 68.1651 57.149 69.6971L66.4519 79L57.149 88.3029C55.617 89.8349 55.617 92.3189 57.149 93.851C58.6811 95.383 61.1651 95.383 62.6971 93.851L72 84.5481L81.3029 93.851C82.8349 95.383 85.3189 95.383 86.851 93.851C88.383 92.3189 88.383 89.8349 86.851 88.3029L77.5481 79L86.851 69.6971C88.383 68.1651 88.383 65.6811 86.851 64.149Z" fill="black"/>
</g>
</svg>
