<svg width="144" height="144" viewBox="0 0 144 144" fill="none" xmlns="http://www.w3.org/2000/svg">
<path opacity="0.15" fill-rule="evenodd" clip-rule="evenodd" d="M110.879 31.7304C97.7932 18.6442 76.5763 18.6442 63.4901 31.7304C51.2243 43.9962 48.3322 61.4589 59.06 74.6204L26.9916 106.681C24.2767 109.102 24.1567 113.309 26.729 115.881C29.3013 118.453 33.5074 118.333 35.9288 115.618L68.9992 83.0001C80.4992 90.0001 98.6137 91.3856 110.879 79.1198C123.966 66.0336 123.966 44.8167 110.879 31.7304ZM101.05 70.0654C99.5711 71.5439 97.174 71.5439 95.6955 70.0654L86.5051 60.875L77.4497 69.9303C76.1798 71.2002 74.1209 71.2002 72.851 69.9303C71.581 68.6604 71.581 66.6015 72.851 65.3315L81.9063 56.2762L73.0317 47.4016C71.5533 45.9231 71.5533 43.5261 73.0317 42.0476C74.5102 40.5691 76.9073 40.5691 78.3857 42.0476L87.2603 50.9222L96.3316 41.8509C97.6015 40.581 99.6605 40.581 100.93 41.8509C102.2 43.1208 102.2 45.1797 100.93 46.4497L91.8591 55.5209L101.05 64.7114C102.528 66.1899 102.528 68.5869 101.05 70.0654Z" fill="black"/>
</svg>
