<svg width="144" height="144" viewBox="0 0 144 144" fill="none" xmlns="http://www.w3.org/2000/svg">
<g clip-path="url(#clip0)">
<path opacity="0.4" fill-rule="evenodd" clip-rule="evenodd" d="M104.895 40.0416C91.6173 26.7638 70.0897 26.7638 56.8119 40.0416C44.9817 51.8718 43.6919 70.2509 52.9424 83.5091L20.0423 116.409C17.6992 118.752 17.6992 122.551 20.0423 124.894C22.3855 127.238 26.1845 127.238 28.5276 124.894L61.4277 91.9944C74.6859 101.245 93.065 99.9551 104.895 88.1249C118.173 74.8471 118.173 53.3195 104.895 40.0416ZM94.9957 49.9411C93.4336 48.379 90.9009 48.379 89.3388 49.9411L80.8535 58.4264L72.3682 49.9411C70.8061 48.379 68.2735 48.379 66.7114 49.9411C65.1493 51.5032 65.1493 54.0359 66.7114 55.598L75.1967 64.0833L66.7114 72.5685C65.1493 74.1306 65.1493 76.6633 66.7114 78.2254C68.2735 79.7875 70.8061 79.7875 72.3682 78.2254L80.8535 69.7401L89.3388 78.2254C90.9009 79.7875 93.4336 79.7875 94.9957 78.2254C96.5577 76.6633 96.5577 74.1306 94.9957 72.5685L86.5104 64.0833L94.9957 55.598C96.5577 54.0359 96.5577 51.5032 94.9957 49.9411Z" fill="white" fill-opacity="0.87"/>
</g>
<defs>
<clipPath id="clip0">
<rect width="144" height="144" fill="white"/>
</clipPath>
</defs>
</svg>
