<svg width="144" height="144" viewBox="0 0 144 144" fill="none" xmlns="http://www.w3.org/2000/svg">
<path fill-rule="evenodd" clip-rule="evenodd" d="M132 95C132 100.523 127.523 105 122 105H22C16.4772 105 12 100.523 12 95V100C12 106.627 17.3726 112 24 112H42.5792L32 130.324C30.8954 132.237 31.5509 134.683 33.4641 135.788C35.3773 136.892 37.8236 136.237 38.9282 134.324L51.8168 112H89.8867L102.775 134.324C103.88 136.237 106.326 136.892 108.24 135.788C110.153 134.683 110.808 132.237 109.704 130.324L99.1244 112H120C126.627 112 132 106.627 132 100V95Z" fill="#3F3F3F"/>
<path opacity="0.4" fill-rule="evenodd" clip-rule="evenodd" d="M22 32C16.4772 32 12 36.4772 12 42V95C12 100.523 16.4772 105 22 105H122C127.523 105 132 100.523 132 95V42C132 36.4772 127.523 32 122 32H22ZM34.5 61C32.0147 61 30 63.0147 30 65.5V85.5C30 87.9853 32.0147 90 34.5 90C36.9853 90 39 87.9853 39 85.5V65.5C39 63.0147 36.9853 61 34.5 61ZM49 62.5C49 60.0147 51.0147 58 53.5 58C55.9853 58 58 60.0147 58 62.5V85.5C58 87.9853 55.9853 90 53.5 90C51.0147 90 49 87.9853 49 85.5V62.5ZM91.5 58C89.0147 58 87 60.0147 87 62.5V85.5C87 87.9853 89.0147 90 91.5 90C93.9853 90 96 87.9853 96 85.5V62.5C96 60.0147 93.9853 58 91.5 58ZM68 66.5C68 64.0147 70.0147 62 72.5 62C74.9853 62 77 64.0147 77 66.5V85.5C77 87.9853 74.9853 90 72.5 90C70.0147 90 68 87.9853 68 85.5V66.5ZM110.5 50C108.015 50 106 52.0147 106 54.5V85.5C106 87.9853 108.015 90 110.5 90C112.985 90 115 87.9853 115 85.5V54.5C115 52.0147 112.985 50 110.5 50Z" fill="white" fill-opacity="0.87"/>
</svg>
