<svg width="144" height="144" viewBox="0 0 144 144" fill="none" xmlns="http://www.w3.org/2000/svg">
<path fill-rule="evenodd" clip-rule="evenodd" d="M30 126V120C30 125.523 34.4772 130 40 130H104C109.523 130 114 125.523 114 120V126C114 132.6 108.6 138 102 138H42C35.4 138 30 132.6 30 126Z" fill="#3F3F3F"/>
<path opacity="0.4" fill-rule="evenodd" clip-rule="evenodd" d="M50 24H94C96.2091 24 98 22.2091 98 20V18H104C109.523 18 114 22.4772 114 28V120C114 125.523 109.523 130 104 130H40C34.4772 130 30 125.523 30 120V28C30 22.4772 34.4772 18 40 18H46V20C46 22.2091 47.7909 24 50 24ZM48 95C48 92.7909 49.7909 91 52 91H92C94.2091 91 96 92.7909 96 95C96 97.2091 94.2091 99 92 99H52C49.7909 99 48 97.2091 48 95ZM52 72C49.7909 72 48 73.7909 48 76C48 78.2091 49.7909 80 52 80H92C94.2091 80 96 78.2091 96 76C96 73.7909 94.2091 72 92 72H52ZM48 57C48 54.7909 49.7909 53 52 53H92C94.2091 53 96 54.7909 96 57C96 59.2091 94.2091 61 92 61H52C49.7909 61 48 59.2091 48 57Z" fill="white" fill-opacity="0.87"/>
<path d="M94 24H50C47.7909 24 46 22.2091 46 20V18C46 15.7909 47.7909 14 50 14H60C61.1046 14 61.9586 13.051 62.4889 12.0821C63.1681 10.8413 64.4858 10 66 10H78C79.5142 10 80.8319 10.8413 81.5111 12.0821C82.0414 13.051 82.8954 14 84 14H94C96.2091 14 98 15.7909 98 18V20C98 22.2091 96.2091 24 94 24Z" fill="#3F3F3F"/>
</svg>
