<svg width="18" height="20" viewBox="0 0 18 20" fill="none" xmlns="http://www.w3.org/2000/svg">
<path d="M5.79282 17.793L5.79282 9.79297H2.20682C2.00907 9.79293 1.81577 9.73425 1.65136 9.62437C1.48695 9.51449 1.35881 9.35832 1.28314 9.17562C1.20747 8.99292 1.18767 8.79189 1.22623 8.59794C1.2648 8.40398 1.36001 8.22582 1.49982 8.08597L8.08582 1.49997C8.27335 1.3125 8.52765 1.20718 8.79282 1.20718C9.05798 1.20718 9.31229 1.3125 9.49982 1.49997L16.0858 8.08597C16.2256 8.22582 16.3208 8.40398 16.3594 8.59794C16.398 8.79189 16.3782 8.99292 16.3025 9.17562C16.2268 9.35832 16.0987 9.51449 15.9343 9.62437C15.7699 9.73425 15.5766 9.79293 15.3788 9.79297H11.7928V17.793C11.7928 18.0582 11.6875 18.3125 11.4999 18.5001C11.3124 18.6876 11.058 18.793 10.7928 18.793H6.79282C6.5276 18.793 6.27325 18.6876 6.08571 18.5001C5.89818 18.3125 5.79282 18.0582 5.79282 17.793Z" stroke="#FF0C3E" stroke-width="1.5" stroke-linecap="round" stroke-linejoin="round"/>
</svg>
