<svg width="18" height="20" viewBox="0 0 18 20" fill="none" xmlns="http://www.w3.org/2000/svg">
<path d="M12.429 14.286L14 19L12.429 14.286Z" fill="black"/>
<path d="M9 3V1V3Z" fill="black"/>
<path d="M4 19L8 7M10 7L11.48 11.439M12.429 14.286L14 19M9 3C7.89543 3 7 3.89543 7 5C7 6.10457 7.89543 7 9 7C10.1046 7 11 6.10457 11 5C11 3.89543 10.1046 3 9 3ZM9 3V1M1 10C2.526 12.955 5.588 15 9 15C12.41 15 15.473 12.952 17 10" stroke="black" stroke-width="1.5" stroke-linecap="round" stroke-linejoin="round"/>
</svg>
