<svg width="16" height="16" viewBox="0 0 16 16" fill="none" xmlns="http://www.w3.org/2000/svg">
<circle cx="8" cy="8" r="7.5" fill="#0F4071" stroke="white"/>
<path d="M10.6719 10.541C10.4147 10.8763 10.0583 11.1302 9.60254 11.3027C9.14681 11.4753 8.62923 11.5615 8.0498 11.5615C7.4541 11.5615 6.92676 11.4264 6.46777 11.1562C6.00879 10.8861 5.65397 10.5003 5.40332 9.99902C5.15592 9.49447 5.02734 8.9069 5.01758 8.23633V7.67969C5.01758 6.60547 5.27474 5.76725 5.78906 5.16504C6.30339 4.55957 7.02116 4.25684 7.94238 4.25684C8.7334 4.25684 9.36165 4.45215 9.82715 4.84277C10.2926 5.2334 10.5726 5.79655 10.667 6.53223H9.45605C9.31934 5.67611 8.82292 5.24805 7.9668 5.24805C7.41341 5.24805 6.99186 5.44824 6.70215 5.84863C6.41569 6.24577 6.26758 6.83008 6.25781 7.60156V8.14844C6.25781 8.91667 6.41895 9.514 6.74121 9.94043C7.06673 10.3636 7.51758 10.5752 8.09375 10.5752C8.72526 10.5752 9.17448 10.432 9.44141 10.1455V8.75391H7.97656V7.81641H10.6719V10.541Z" fill="white"/>
</svg>
