<svg width="24" height="24" viewBox="0 0 24 24" fill="none" xmlns="http://www.w3.org/2000/svg">
<path fill-rule="evenodd" clip-rule="evenodd" d="M1 4C1 2.34315 2.34315 1 4 1H20C21.6569 1 23 2.34315 23 4V20C23 21.6569 21.6569 23 20 23H4C2.34315 23 1 21.6569 1 20V4ZM8.25 14.5C7.2835 14.5 6.5 15.2835 6.5 16.25C6.5 17.2165 7.2835 18 8.25 18C9.2165 18 10 17.2165 10 16.25C10 15.2835 9.2165 14.5 8.25 14.5ZM8.25 13.5C8.91481 13.5 9.52453 13.7359 10 14.1286V9.5V6.5C10 6.22386 10.2239 6 10.5 6H18C18.2761 6 18.5 6.22386 18.5 6.5V9.5V16.25C18.5 17.7688 17.2688 19 15.75 19C14.2312 19 13 17.7688 13 16.25C13 14.7312 14.2312 13.5 15.75 13.5C16.4148 13.5 17.0245 13.7359 17.5 14.1286V10H11V16.25C11 17.7688 9.76878 19 8.25 19C6.73122 19 5.5 17.7688 5.5 16.25C5.5 14.7312 6.73122 13.5 8.25 13.5ZM11 9H17.5V7H11V9ZM15.75 14.5C16.7165 14.5 17.5 15.2835 17.5 16.25C17.5 17.2165 16.7165 18 15.75 18C14.7835 18 14 17.2165 14 16.25C14 15.2835 14.7835 14.5 15.75 14.5Z" fill="#FF7472"/>
</svg>
