<svg width="141" height="50" viewBox="0 0 141 50" fill="none" xmlns="http://www.w3.org/2000/svg">
<g opacity="0.75">
<path d="M0 9.24985C0 6.14449 0.831292 3.83199 2.62177 2.37842C4.28435 0.792704 6.33061 0.065918 8.63265 0.065918C10.9347 0.065918 12.917 0.792704 14.6435 2.37842C16.3061 3.96413 17.2014 6.21056 17.2014 9.31592C17.2014 12.4213 16.3701 14.7338 14.6435 16.1873C12.981 17.7731 10.9347 18.4998 8.63265 18.4998C6.33061 18.4998 4.3483 17.7731 2.62177 16.1873C0.895237 14.6016 0 12.2891 0 9.24985ZM3.77279 9.24985C3.77279 11.3641 4.15647 12.8838 4.92381 13.8748C5.69116 14.8659 6.5864 15.5266 7.48164 15.7248C7.73742 15.7909 7.86531 15.857 8.12109 15.857C8.31293 15.857 8.50476 15.9231 8.6966 15.9231C8.95238 15.9231 9.08027 15.9231 9.33605 15.857C9.59184 15.857 9.71973 15.7909 9.97551 15.7248C10.8707 15.4606 11.702 14.8659 12.4694 13.8748C13.1728 12.8838 13.6204 11.2981 13.6204 9.31592C13.6204 7.20163 13.2367 5.74806 12.4694 4.75699C11.766 3.76592 10.8707 3.1052 9.97551 2.90699C9.71973 2.84092 9.52789 2.77485 9.33605 2.77485C9.08027 2.77485 8.95238 2.70878 8.6966 2.70878C8.44082 2.70878 8.31293 2.70877 8.12109 2.77485C7.92925 2.77485 7.73742 2.84092 7.48164 2.90699C6.5864 3.17127 5.75511 3.76592 4.92381 4.75699C4.15647 5.54985 3.77279 7.13556 3.77279 9.24985Z" fill="white" fill-opacity="0.87"/>
<path d="M19.7593 0H24.4273L30.5661 11.6286L31.4613 14.2054H31.5253L31.4613 10.9018V0H35.0423V18.5H30.3742L24.2355 6.40893L23.3402 4.36071H23.2763L23.3402 7.59821V18.5H19.7593V0Z" fill="white" fill-opacity="0.87"/>
<path d="M38.4314 0H42.0124V15.3286H49.0464V18.5H38.4314V0V0Z" fill="white" fill-opacity="0.87"/>
<path d="M47.5115 0H51.604L55.2489 6.34286L55.8244 7.59821H55.9523L56.5278 6.34286L60.1727 0H63.9455L57.5509 10.7696V18.1696H53.97V10.7036L47.5115 0Z" fill="white" fill-opacity="0.87"/>
<path d="M63.562 9.24985C63.562 6.14449 64.3933 3.83199 66.1838 2.37842C67.8464 0.792704 69.8926 0.065918 72.1947 0.065918C74.4967 0.065918 76.479 0.792704 78.2055 2.37842C79.8681 3.96413 80.7634 6.21056 80.7634 9.31592C80.7634 12.4213 79.9321 14.7338 78.2055 16.1873C76.543 17.7731 74.4967 18.4998 72.1947 18.4998C69.8926 18.4998 67.9103 17.7731 66.1838 16.1873C64.4573 14.6016 63.562 12.2891 63.562 9.24985ZM67.2709 9.24985C67.2709 11.3641 67.6545 12.8838 68.4219 13.8748C69.1892 14.8659 70.0205 15.5266 70.9797 15.7248C71.2355 15.7909 71.3634 15.857 71.6192 15.857C71.811 15.857 72.0028 15.9231 72.1947 15.9231C72.4504 15.9231 72.5783 15.9231 72.8341 15.857C73.0899 15.857 73.2178 15.7909 73.4736 15.7248C74.3688 15.4606 75.2001 14.8659 75.9675 13.8748C76.6709 12.8838 77.1185 11.2981 77.1185 9.31592C77.1185 7.20163 76.7348 5.74806 75.9675 4.75699C75.2001 3.76592 74.3688 3.1052 73.4736 2.90699C73.2178 2.84092 73.026 2.77485 72.8341 2.77485C72.5783 2.77485 72.4504 2.70878 72.1947 2.70878C71.9389 2.70878 71.811 2.70877 71.6192 2.77485C71.4273 2.77485 71.2355 2.84092 70.9797 2.90699C70.0845 3.17127 69.2532 3.76592 68.4219 4.75699C67.7185 5.54985 67.2709 7.13556 67.2709 9.24985Z" fill="white" fill-opacity="0.87"/>
<path d="M83.321 0H93.1687V3.03929H86.902V7.46607H92.9129V10.5714H86.902V18.1696H83.321V0Z" fill="white" fill-opacity="0.87"/>
<path d="M95.7266 0H105.574V3.03929H99.3075V7.46607H105.318V10.5714H99.3075V18.1696H95.7266V0Z" fill="white" fill-opacity="0.87"/>
<path d="M108.196 18.1036V0H111.841V18.1036H108.196Z" fill="white" fill-opacity="0.87"/>
<path d="M128.275 0.4625V3.63393C127.635 3.36964 126.996 3.2375 126.357 3.10536C125.653 2.97321 124.886 2.90714 124.054 2.90714C122.2 2.90714 120.729 3.50179 119.706 4.69107C118.683 5.88036 118.171 7.4 118.171 9.18393C118.171 10.9018 118.619 12.4214 119.578 13.5446C120.537 14.7339 121.944 15.3286 123.671 15.3286C124.31 15.3286 124.95 15.2625 125.653 15.1964C126.42 15.0643 127.124 14.9321 127.955 14.5357L128.211 17.6411C128.083 17.7071 127.955 17.7732 127.763 17.8393C127.508 17.9054 127.316 17.9714 126.996 18.0375C126.548 18.1696 125.973 18.2357 125.269 18.3018C124.566 18.3679 123.927 18.4339 123.159 18.4339C123.031 18.4339 122.903 18.4339 122.903 18.4339C122.776 18.4339 122.648 18.4339 122.648 18.4339C120.601 18.3018 118.683 17.5089 117.02 16.1214C115.294 14.6679 114.463 12.3554 114.463 9.38214C114.463 6.40893 115.294 4.09643 116.957 2.44464C118.619 0.792857 120.921 0 123.671 0C124.438 0 125.078 2.51058e-07 125.653 0.0660717C126.293 0.132143 126.868 0.264286 127.508 0.330357C127.635 0.396429 127.763 0.396428 127.891 0.4625C127.955 0.396428 128.083 0.4625 128.275 0.4625Z" fill="white" fill-opacity="0.87"/>
<path d="M130.769 0H141V2.84107H134.286V7.4H140.361V10.175H134.286V15.2625H141V18.1036H130.769V0Z" fill="white" fill-opacity="0.87"/>
<path d="M42 32.256V44.856H43.188V39.528H45.276C47.634 39.528 49.056 38.052 49.056 35.892C49.056 33.732 47.616 32.256 45.276 32.256H42ZM43.188 33.282H45.042C45.366 33.282 47.778 33.3 47.778 35.892C47.778 38.376 45.726 38.502 45.042 38.502H43.188V33.282Z" fill="white" fill-opacity="0.87"/>
<path d="M51.4944 44.856V39.546C51.4944 38.304 52.1424 36.54 53.6544 36.54C53.9964 36.54 54.3204 36.594 54.6444 36.72V35.64C54.3024 35.532 53.9604 35.478 53.6184 35.478C52.2684 35.478 51.6024 36.63 51.3864 37.602H51.3684V35.622H50.2884L50.3604 37.314V44.856H51.4944Z" fill="white" fill-opacity="0.87"/>
<path d="M55.4065 40.248C55.4065 43.11 57.1165 45 59.6725 45C62.2285 45 63.9385 43.11 63.9385 40.248C63.9385 37.368 62.2465 35.478 59.6725 35.478C57.0985 35.478 55.4065 37.368 55.4065 40.248ZM56.5945 40.248C56.5945 38.448 57.5125 36.432 59.6725 36.432C61.8325 36.432 62.7505 38.448 62.7505 40.248C62.7505 42.03 61.8325 44.046 59.6725 44.046C57.5125 44.046 56.5945 42.03 56.5945 40.248Z" fill="white" fill-opacity="0.87"/>
<path d="M67.3306 35.622H66.1966V46.296C66.1966 47.682 65.5666 47.826 65.0806 47.826C64.7926 47.826 64.5046 47.808 64.2166 47.718V48.636C64.5766 48.744 64.9186 48.78 65.2786 48.78C67.2046 48.78 67.3306 47.142 67.3306 46.188V35.622ZM66.1966 31.5V32.94H67.3306V31.5H66.1966Z" fill="white" fill-opacity="0.87"/>
<path d="M77.1885 40.572V40.212C77.1885 38.61 76.9365 35.478 73.4985 35.478C71.1585 35.478 69.4845 37.188 69.4845 40.086C69.4845 43.254 71.0865 45 73.7145 45C74.6505 45 75.5505 44.892 76.4865 44.496V43.452C75.5685 43.92 74.6685 44.046 73.7325 44.046C71.1045 44.046 70.6545 41.706 70.6725 40.572H77.1885ZM70.6725 39.618C70.7085 38.07 71.6265 36.432 73.4985 36.432C75.8925 36.432 76.0185 38.88 76.0005 39.618H70.6725Z" fill="white" fill-opacity="0.87"/>
<path d="M85.3446 35.838C84.3546 35.514 83.5446 35.478 83.1306 35.478C79.9806 35.478 78.4866 37.818 78.4866 40.248C78.4866 43.056 80.2686 45 83.2746 45C84.0306 45 84.6606 44.928 85.4166 44.64L85.3086 43.668C84.6426 43.92 83.9226 44.046 83.2746 44.046C81.3666 44.046 79.6746 42.876 79.6746 40.248C79.6746 37.998 81.0066 36.432 83.1486 36.432C84.1566 36.432 84.9666 36.72 85.2906 36.846L85.3446 35.838Z" fill="white" fill-opacity="0.87"/>
<path d="M87.9899 33.318V35.622H86.0999V36.576H87.9899V42.318C87.9899 43.344 88.0619 45 90.0959 45C90.4199 45 90.8699 44.982 91.3739 44.802V43.848C91.0139 44.01 90.6719 44.046 90.2219 44.046C89.4839 44.046 89.1239 43.812 89.1239 42.246V36.576H91.3199V35.622H89.1239V32.904L87.9899 33.318Z" fill="white" fill-opacity="0.87"/>
<path d="M98.2856 35.964C97.5476 35.622 96.8816 35.478 96.0896 35.478C94.3076 35.478 92.9936 36.306 92.9936 37.728C92.9936 39.276 94.1816 39.852 95.3696 40.374C96.6116 40.914 97.4216 41.184 97.4216 42.372C97.4216 43.434 96.5936 44.046 95.3336 44.046C94.5956 44.046 93.7496 43.884 92.9396 43.506L92.8676 44.586C93.7316 44.892 94.4876 45 95.2976 45C97.7096 45 98.6096 43.632 98.6096 42.372C98.6096 40.77 97.3676 40.104 96.4856 39.726C94.6496 38.97 94.1096 38.682 94.1096 37.728C94.1096 36.684 95.1536 36.432 96.0356 36.432C96.8816 36.432 97.5296 36.576 98.2136 36.864L98.2856 35.964Z" fill="white" fill-opacity="0.87"/>
</g>
</svg>
