<svg width="60" height="60" viewBox="0 0 60 60" fill="none" xmlns="http://www.w3.org/2000/svg">
<path fill-rule="evenodd" clip-rule="evenodd" d="M8.15674 22.1729L3.48677 25.3228C2.11319 26.2493 1.75076 28.1138 2.67725 29.4874L19.4531 54.3586C20.3796 55.7322 22.2441 56.0946 23.6177 55.1681L38.5514 45.0952L24.9422 50.5594C22.3796 51.5884 19.4681 50.345 18.4392 47.7824L8.15674 22.1729Z" fill="#F36F43"/>
<path fill-rule="evenodd" clip-rule="evenodd" d="M17.5577 12.1387L21.6902 41.0456C22.081 43.7792 24.6139 45.6785 27.3475 45.2877L33.9471 44.3442L24.2671 48.2552C22.7309 48.8758 20.9824 48.1336 20.3617 46.5974L9.12354 18.7819C8.50287 17.2457 9.24507 15.4972 10.7813 14.8765L17.5577 12.1387Z" fill="#95C03D"/>
<path d="M51.714 3.3592L22.006 7.53438C20.3652 7.76497 19.2221 9.28199 19.4527 10.9227L23.6279 40.6307C23.8585 42.2715 25.3755 43.4146 27.0162 43.184L56.7242 39.0089C58.365 38.7783 59.5081 37.2612 59.2775 35.6205L55.1023 5.9125C54.8717 4.27176 53.3547 3.1286 51.714 3.3592Z" fill="#5FC1E8"/>
<path d="M30.6899 24.3458L38.3116 29.7492C38.3559 29.7806 38.4173 29.7709 38.4497 29.7272L47.7773 17.1777" stroke="white" stroke-width="4" stroke-linecap="round"/>
</svg>
