<svg width="61" height="57" viewBox="0 0 61 57" fill="none" xmlns="http://www.w3.org/2000/svg">
<path fill-rule="evenodd" clip-rule="evenodd" d="M26.6759 56.2597L1.5728 44.5389C-0.524267 43.5519 -0.524267 41.948 1.5728 40.961L10.3928 36.8279L26.6759 44.4155C28.773 45.4026 32.227 45.4026 34.3241 44.4155L50.6072 36.8279L59.4272 40.961C61.5243 41.948 61.5243 43.5519 59.4272 44.5389L34.3241 56.2597C32.227 57.2467 28.773 57.2467 26.6759 56.2597Z" fill="#E36539"/>
<path fill-rule="evenodd" clip-rule="evenodd" d="M26.6759 41.8866L1.5728 30.1658C-0.524267 29.1788 -0.524267 27.5749 1.5728 26.5879L10.0844 22.5781L26.6759 30.2892C28.773 31.2762 32.227 31.2762 34.3241 30.2892L50.9156 22.5781L59.4272 26.5879C61.5243 27.5749 61.5243 29.1788 59.4272 30.1658L34.3241 41.8866C32.227 42.8736 28.773 42.8736 26.6759 41.8866Z" fill="#8BB725"/>
<path fill-rule="evenodd" clip-rule="evenodd" d="M26.6759 27.7598L1.5728 16.039C-0.524267 15.052 -0.524267 13.4481 1.5728 12.461L26.6759 0.74026C28.773 -0.246753 32.227 -0.246753 34.3241 0.74026L59.4272 12.461C61.5243 13.4481 61.5243 15.052 59.4272 16.039L34.3241 27.7598C32.227 28.7468 28.773 28.7468 26.6759 27.7598Z" fill="#60C2E8"/>
</svg>
