<svg width="40" height="40" viewBox="0 0 40 40" fill="none" xmlns="http://www.w3.org/2000/svg">
<circle cx="20" cy="20" r="20" fill="#F1F3F8"/>
<path d="M13.334 32L18.6673 16M21.334 16L23.3073 21.9187M24.5727 25.7147L26.6673 32M20.0007 10.6667C18.5279 10.6667 17.334 11.8606 17.334 13.3333C17.334 14.8061 18.5279 16 20.0007 16C21.4734 16 22.6673 14.8061 22.6673 13.3333C22.6673 11.8606 21.4734 10.6667 20.0007 10.6667ZM20.0007 10.6667L20.0005 8M9.33398 20C11.3687 23.94 15.4513 26.6667 20.0007 26.6667C24.5473 26.6667 28.6313 23.936 30.6673 20" stroke="#AFB2BE" stroke-width="2.5" stroke-linecap="round" stroke-linejoin="round"/>
</svg>
