<svg width="153" height="28" viewBox="0 0 153 28" fill="none" xmlns="http://www.w3.org/2000/svg">
<path fill-rule="evenodd" clip-rule="evenodd" d="M13.3403 27.6567L0.801116 21.8896C-0.267039 21.3862 -0.267039 20.6081 0.801116 20.1504L5.16662 18.1365L13.2939 21.8896C14.362 22.3931 16.0804 22.3931 17.1021 21.8896L25.2294 18.1365L29.5949 20.1504C30.663 20.6538 30.663 21.4319 29.5949 21.8896L17.0556 27.6567C16.0804 28.1144 14.362 28.1144 13.3403 27.6567Z" fill="#FF6F3D"/>
<path fill-rule="evenodd" clip-rule="evenodd" d="M13.3403 20.5623L0.801116 14.7953C-0.267039 14.2918 -0.267039 13.5137 0.801116 13.056L5.07373 11.0879L13.3403 14.8868C14.4085 15.3903 16.1268 15.3903 17.1485 14.8868L25.4151 11.0879L29.6877 13.056C30.7559 13.5595 30.7559 14.3376 29.6877 14.7953L17.1485 20.5623C16.0804 21.0658 14.362 21.0658 13.3403 20.5623Z" fill="#95C038"/>
<path fill-rule="evenodd" clip-rule="evenodd" d="M13.3403 13.651L0.801116 7.88393C-0.267039 7.38045 -0.267039 6.60236 0.801116 6.14466L13.3403 0.377605C14.4085 -0.125868 16.1268 -0.125868 17.1485 0.377605L29.6877 6.14466C30.7559 6.64813 30.7559 7.42622 29.6877 7.88393L17.1485 13.651C16.0804 14.1087 14.362 14.1087 13.3403 13.651Z" fill="#5DC0E8"/>
<path d="M38.1529 13.9432C38.1529 11.5581 38.8443 9.758 40.2732 8.58794C41.656 7.37287 43.3153 6.78784 45.2051 6.78784C47.0949 6.78784 48.7082 7.37287 50.091 8.58794C51.4738 9.803 52.1652 11.5581 52.1652 13.9882C52.1652 16.3734 51.4738 18.1735 50.091 19.3435C48.7082 20.5586 47.0488 21.1436 45.2051 21.1436C43.3153 21.1436 41.7021 20.5586 40.2732 19.3435C38.8443 18.1285 38.1529 16.3284 38.1529 13.9432ZM41.195 13.9432C41.195 15.6083 41.5177 16.7784 42.1169 17.5434C42.7622 18.3085 43.4536 18.8035 44.1911 18.9835C44.3754 19.0285 44.5137 19.0735 44.6981 19.0735C44.8364 19.0735 45.0207 19.1185 45.159 19.1185C45.3434 19.1185 45.4817 19.1185 45.666 19.0735C45.8504 19.0735 45.9887 19.0285 46.1731 18.9835C46.9106 18.8035 47.602 18.3085 48.2012 17.5434C48.8004 16.7784 49.123 15.5633 49.123 13.9882C49.123 12.3681 48.8004 11.1981 48.2012 10.433C47.602 9.668 46.9106 9.17297 46.1731 8.99296C45.9887 8.94796 45.8043 8.90296 45.666 8.90296C45.4817 8.90296 45.3434 8.85795 45.159 8.85795C44.9747 8.85795 44.8364 8.85795 44.6981 8.90296C44.5598 8.90296 44.3754 8.94796 44.1911 8.99296C43.4536 9.17297 42.7622 9.668 42.1169 10.433C41.5177 11.1081 41.195 12.3231 41.195 13.9432Z" fill="#333333"/>
<path d="M53.6862 6.92285H57.4658L62.4439 15.7433L63.1814 17.6784H63.2275L63.1814 15.1583V6.92285H66.0852V20.9636H62.3056L57.3276 11.7831L56.5901 10.208H56.544L56.5901 12.6832V20.9636H53.6862V6.92285Z" fill="#333333"/>
<path d="M69.0813 6.92285H71.9852V18.5785H77.7007V20.9636H69.0813V6.92285Z" fill="#333333"/>
<path d="M75.9031 6.92285H79.2679L82.2178 11.8281L82.6787 12.8182H82.7709L83.2319 11.8281L86.2279 6.92285H89.3161L84.1076 15.2483V20.9636H81.2038V15.2033L75.9031 6.92285Z" fill="#333333"/>
<path d="M88.9474 13.9432C88.9474 11.5581 89.6388 9.758 91.0677 8.58794C92.4505 7.37287 94.1098 6.78784 95.9996 6.78784C97.8894 6.78784 99.5027 7.37287 100.885 8.58794C102.268 9.803 102.96 11.5581 102.96 13.9882C102.96 16.3734 102.268 18.1735 100.885 19.3435C99.5027 20.5586 97.8433 21.1436 95.9996 21.1436C94.1098 21.1436 92.4965 20.5586 91.0677 19.3435C89.6849 18.1285 88.9474 16.3284 88.9474 13.9432ZM91.9895 13.9432C91.9895 15.6083 92.3122 16.7784 92.9114 17.5434C93.5567 18.3085 94.202 18.8035 94.9856 18.9835C95.1699 19.0285 95.3082 19.0735 95.4926 19.0735C95.6309 19.0735 95.8152 19.1185 95.9535 19.1185C96.1379 19.1185 96.2762 19.1185 96.4605 19.0735C96.6449 19.0735 96.7832 19.0285 96.9676 18.9835C97.7051 18.8035 98.3965 18.3085 98.9957 17.5434C99.5949 16.7784 99.9175 15.5633 99.9175 13.9882C99.9175 12.3681 99.5949 11.1981 98.9957 10.433C98.3965 9.668 97.7051 9.17297 96.9676 8.99296C96.7832 8.94796 96.5988 8.90296 96.4605 8.90296C96.2762 8.90296 96.1379 8.85795 95.9535 8.85795C95.7692 8.85795 95.6309 8.85795 95.4926 8.90296C95.3543 8.90296 95.1699 8.94796 94.9856 8.99296C94.2481 9.17297 93.5567 9.668 92.9114 10.433C92.3122 11.1081 91.9895 12.3231 91.9895 13.9432Z" fill="#333333"/>
<path d="M104.988 6.92285H113.008V9.26298H107.892V12.6832H112.777V15.0683H107.892V20.9636H104.988V6.92285Z" fill="#333333"/>
<path d="M115.174 6.92285H123.195V9.26298H118.078V12.6832H122.964V15.0683H118.078V20.9636H115.174V6.92285Z" fill="#333333"/>
<path d="M124.9 20.9636V6.92285H127.804V20.9636H124.9Z" fill="#333333"/>
<path d="M140.599 7.23771V9.66784C140.092 9.48783 139.585 9.35282 139.032 9.26281C138.479 9.17281 137.833 9.12781 137.188 9.12781C135.667 9.12781 134.515 9.57783 133.685 10.5229C132.855 11.4229 132.44 12.593 132.44 13.9881C132.44 15.3381 132.809 16.4632 133.593 17.3633C134.376 18.2633 135.482 18.7583 136.911 18.7583C137.418 18.7583 137.925 18.7133 138.525 18.6683C139.124 18.5783 139.723 18.4433 140.368 18.1733L140.553 20.5584C140.461 20.6034 140.322 20.6484 140.184 20.6934C140 20.7384 139.815 20.7834 139.585 20.8284C139.216 20.9184 138.755 20.9635 138.202 21.0535C137.649 21.0985 137.096 21.1435 136.497 21.1435C136.404 21.1435 136.312 21.1435 136.266 21.1435C136.174 21.1435 136.082 21.1435 136.036 21.1435C134.376 21.0535 132.855 20.4234 131.472 19.3434C130.09 18.2183 129.398 16.4632 129.398 14.1231C129.398 11.828 130.09 10.0279 131.426 8.76779C132.763 7.50772 134.607 6.87769 136.865 6.87769C137.464 6.87769 138.018 6.87769 138.479 6.92269C138.986 6.96769 139.446 7.0577 139.953 7.1477C140.046 7.1927 140.184 7.1927 140.276 7.23771C140.368 7.1927 140.461 7.23771 140.599 7.23771Z" fill="#333333"/>
<path d="M142.904 6.92285H151.523V9.12797H145.853V12.6382H150.97V14.7983H145.853V18.7585H151.523V20.9636H142.904V6.92285Z" fill="#333333"/>
</svg>
