<svg width="16" height="16" viewBox="0 0 16 16" fill="none" xmlns="http://www.w3.org/2000/svg">
    <path
        d="M12.6667 2.66699H3.33333C2.59695 2.66699 2 3.26395 2 4.00033C2 4.73671 2.59695 5.33366 3.33333 5.33366H12.6667C13.403 5.33366 14 4.73671 14 4.00033C14 3.26395 13.403 2.66699 12.6667 2.66699Z"
        stroke="#1A73E9" stroke-width="1.5" stroke-linecap="round" stroke-linejoin="round" />
    <path
        d="M3.33203 5.33301V11.9997C3.33203 12.3533 3.47251 12.6924 3.72256 12.9425C3.9726 13.1925 4.31174 13.333 4.66536 13.333H11.332C11.6857 13.333 12.0248 13.1925 12.2748 12.9425C12.5249 12.6924 12.6654 12.3533 12.6654 11.9997V5.33301"
        stroke="#1A73E9" stroke-width="1.5" stroke-linecap="round" stroke-linejoin="round" />
    <path d="M6.66797 8H9.33464" stroke="#1A73E9" stroke-width="1.5" stroke-linecap="round"
        stroke-linejoin="round" />
</svg>
