<svg width="16" height="16" viewBox="0 0 16 16" fill="none" xmlns="http://www.w3.org/2000/svg">
    <path
        d="M3 7.25C2.58579 7.25 2.25 7.58579 2.25 8C2.25 8.41421 2.58579 8.75 3 8.75V7.25ZM13 8L13.5303 8.53033C13.8232 8.23744 13.8232 7.76256 13.5303 7.46967L13 8ZM9.53033 3.46967C9.23744 3.17678 8.76256 3.17678 8.46967 3.46967C8.17678 3.76256 8.17678 4.23744 8.46967 4.53033L9.53033 3.46967ZM8.46967 11.4697C8.17678 11.7626 8.17678 12.2374 8.46967 12.5303C8.76256 12.8232 9.23744 12.8232 9.53033 12.5303L8.46967 11.4697ZM3 8.75H8V7.25H3V8.75ZM8 8.75H13V7.25H8V8.75ZM13.5303 7.46967L9.53033 3.46967L8.46967 4.53033L12.4697 8.53033L13.5303 7.46967ZM12.4697 7.46967L8.46967 11.4697L9.53033 12.5303L13.5303 8.53033L12.4697 7.46967Z"
        fill="#1A73E9" />
</svg>
