<svg width="33" height="33" viewBox="0 0 33 33" fill="none" xmlns="http://www.w3.org/2000/svg">
<path fill-rule="evenodd" clip-rule="evenodd" d="M16.4938 6.3155C19.1882 6.20626 21.8227 6.97191 23.9071 8.45063C25.9893 9.92785 27.3697 12.006 27.8303 14.2815C28.2902 16.5538 27.8099 18.9056 26.457 20.9065C26.2828 21.1641 26.2384 21.488 26.3367 21.7829L27.5173 25.3248L22.9601 24.3552C22.7425 24.3089 22.5155 24.3365 22.3153 24.4337C20.3763 25.3751 18.1673 25.7765 15.9781 25.5967C15.9276 26.2817 15.7909 26.9426 15.5787 27.5687C18.0766 27.8151 20.6126 27.4077 22.8727 26.3814L28.8106 27.6448C29.1614 27.7194 29.5253 27.6005 29.7643 27.333C30.0033 27.0656 30.0808 26.6907 29.9674 26.3504L28.3856 21.6051C29.8222 19.2653 30.3279 16.5395 29.7905 13.8847C29.2212 11.0718 27.528 8.56728 25.0643 6.81944C22.6028 5.0731 19.5286 4.19081 16.4127 4.31714C13.2969 4.44348 10.3211 5.57123 8.04271 7.51458C5.76173 9.46013 4.32932 12.0982 4.05005 14.9492C3.95057 15.9647 4.00038 16.9774 4.19059 17.9635C4.78368 17.6417 5.422 17.3927 6.09359 17.2286C5.99082 16.5408 5.97216 15.842 6.04052 15.1441C6.26577 12.8446 7.4249 10.6702 9.34061 9.03625C11.2589 7.40007 13.7994 6.42475 16.4938 6.3155ZM22.352 15C21.7998 15 21.352 15.4477 21.352 16V16.0133C21.352 16.5656 21.7998 17.0133 22.352 17.0133C22.9043 17.0133 23.352 16.5656 23.352 16.0133V16C23.352 15.4477 22.9043 15 22.352 15ZM17.0187 15C16.4664 15 16.0187 15.4477 16.0187 16V16.0133C16.0187 16.5656 16.4664 17.0133 17.0187 17.0133C17.571 17.0133 18.0187 16.5656 18.0187 16.0133V16C18.0187 15.4477 17.571 15 17.0187 15ZM11.6854 15C11.1331 15 10.6854 15.4477 10.6854 16V16.0133C10.6854 16.5656 11.1331 17.0133 11.6854 17.0133C12.2377 17.0133 12.6854 16.5656 12.6854 16.0133V16C12.6854 15.4477 12.2377 15 11.6854 15Z" fill="white"/>
<path fill-rule="evenodd" clip-rule="evenodd" d="M8 31.5C11.5899 31.5 14.5 28.5898 14.5 25C14.5 21.4101 11.5899 18.5 8 18.5C4.41015 18.5 1.5 21.4101 1.5 25C1.5 28.5898 4.41015 31.5 8 31.5ZM16 25C16 29.4183 12.4183 33 8 33C3.58172 33 0 29.4183 0 25C0 20.5817 3.58172 17 8 17C12.4183 17 16 20.5817 16 25Z" fill="white"/>
<path fill-rule="evenodd" clip-rule="evenodd" d="M7.99998 21.5833C8.41419 21.5833 8.74998 21.9191 8.74998 22.3333V24.25H10.6666C11.0809 24.25 11.4166 24.5858 11.4166 25C11.4166 25.4142 11.0809 25.75 10.6666 25.75H8.74998V27.6667C8.74998 28.0809 8.41419 28.4167 7.99998 28.4167C7.58577 28.4167 7.24998 28.0809 7.24998 27.6667V25.75H5.33331C4.9191 25.75 4.58331 25.4142 4.58331 25C4.58331 24.5858 4.9191 24.25 5.33331 24.25H7.24998V22.3333C7.24998 21.9191 7.58577 21.5833 7.99998 21.5833Z" fill="white"/>
</svg>
