<svg width="33" height="33" viewBox="0 0 33 33" fill="none" xmlns="http://www.w3.org/2000/svg">
<path d="M10.334 28L15.6673 12M18.334 12L20.3073 17.9187M21.5727 21.7147L23.6673 28M17.0007 6.66667C15.5279 6.66667 14.334 7.86057 14.334 9.33333C14.334 10.8061 15.5279 12 17.0007 12C18.4734 12 19.6673 10.8061 19.6673 9.33333C19.6673 7.86057 18.4734 6.66667 17.0007 6.66667ZM17.0007 6.66667V4M6.33398 16C8.36865 19.94 12.4513 22.6667 17.0007 22.6667C21.5473 22.6667 25.6313 19.936 27.6673 16" stroke="white" stroke-width="2" stroke-linecap="round" stroke-linejoin="round"/>
<path d="M15.25 25C15.25 29.0041 12.0041 32.25 8 32.25C3.99594 32.25 0.75 29.0041 0.75 25C0.75 20.9959 3.99594 17.75 8 17.75C12.0041 17.75 15.25 20.9959 15.25 25Z" fill="#ED7309" stroke="white" stroke-width="1.5" stroke-linecap="round" stroke-linejoin="round"/>
<path d="M5.33398 25H8.00065M8.00065 25H10.6673M8.00065 25V22.3333M8.00065 25V27.6667" stroke="white" stroke-width="1.5" stroke-linecap="round" stroke-linejoin="round"/>
</svg>
