<svg width="33" height="33" viewBox="0 0 33 33" fill="none" xmlns="http://www.w3.org/2000/svg">
<path d="M17.0186 16V16.0133M22.3519 16V16.0133M11.6852 16V16.0133M29.0186 26.6667L27.2852 21.4667C28.7833 19.251 29.3252 16.6272 28.8103 14.0831C28.2953 11.5389 26.7585 9.24756 24.4855 7.63503C22.2126 6.0225 19.3582 5.19853 16.4531 5.31632C13.548 5.43411 10.7899 6.48565 8.69151 8.27541C6.59316 10.0652 5.29739 12.4714 5.04513 15.0466C4.79287 17.6219 5.60129 20.191 7.32006 22.2762C9.03884 24.3614 11.551 25.8208 14.3895 26.3831C17.228 26.9455 20.1996 26.5724 22.7519 25.3333L29.0186 26.6667Z" stroke="white" stroke-width="2" stroke-linecap="round" stroke-linejoin="round"/>
<path d="M15.25 25C15.25 29.0041 12.0041 32.25 8 32.25C3.99594 32.25 0.75 29.0041 0.75 25C0.75 20.9959 3.99594 17.75 8 17.75C12.0041 17.75 15.25 20.9959 15.25 25Z" fill="#ED7309" stroke="white" stroke-width="1.5" stroke-linecap="round" stroke-linejoin="round"/>
<path d="M5.3335 25H8.00016M8.00016 25H10.6668M8.00016 25V22.3333M8.00016 25V27.6667" stroke="white" stroke-width="1.5" stroke-linecap="round" stroke-linejoin="round"/>
</svg>
