<svg width="48" height="48" viewBox="0 0 48 48" fill="none" xmlns="http://www.w3.org/2000/svg">
<g opacity="0.6">
<path d="M24.895 21H23.105C22.4947 21 22 21.4947 22 22.105V31.895C22 32.5053 22.4947 33 23.105 33H24.895C25.5053 33 26 32.5053 26 31.895V22.105C26 21.4947 25.5053 21 24.895 21Z" stroke="black" stroke-width="1.5" stroke-linecap="round" stroke-linejoin="round"/>
<path d="M31.895 15H30.105C29.4947 15 29 15.4947 29 16.105V31.895C29 32.5053 29.4947 33 30.105 33H31.895C32.5053 33 33 32.5053 33 31.895V16.105C33 15.4947 32.5053 15 31.895 15Z" stroke="black" stroke-width="1.5" stroke-linecap="round" stroke-linejoin="round"/>
<path d="M17 33C18.1046 33 19 32.1046 19 31C19 29.8954 18.1046 29 17 29C15.8954 29 15 29.8954 15 31C15 32.1046 15.8954 33 17 33Z" stroke="black" stroke-width="1.5" stroke-linecap="round" stroke-linejoin="round"/>
</g>
</svg>
