<svg width="10" height="20" viewBox="0 0 10 20" fill="none" xmlns="http://www.w3.org/2000/svg">
<path d="M7.5 5.25012C7.91421 5.25012 8.25 4.91434 8.25 4.50012C8.25 4.08591 7.91421 3.75012 7.5 3.75012V5.25012ZM7.5 7.25012C7.91421 7.25012 8.25 6.91434 8.25 6.50012C8.25 6.08591 7.91421 5.75012 7.5 5.75012V7.25012ZM5.75 3.00012C5.75 2.58591 5.41421 2.25012 5 2.25012C4.58579 2.25012 4.25 2.58591 4.25 3.00012H5.75ZM5 5.25012H7.5V3.75012H5V5.25012ZM5 7.25012H7.5V5.75012H5V7.25012ZM5.75 6.50012V4.50012H4.25V6.50012H5.75ZM5.75 4.50012V3.00012H4.25V4.50012H5.75ZM5.75 10.0001V6.50012H4.25V10.0001H5.75ZM7.25 13.0001C7.25 14.2428 6.24264 15.2501 5 15.2501V16.7501C7.07107 16.7501 8.75 15.0712 8.75 13.0001H7.25ZM5 15.2501C3.75736 15.2501 2.75 14.2428 2.75 13.0001H1.25C1.25 15.0712 2.92893 16.7501 5 16.7501V15.2501ZM2.75 13.0001C2.75 11.7575 3.75736 10.7501 5 10.7501V9.25012C2.92893 9.25012 1.25 10.9291 1.25 13.0001H2.75ZM5 10.7501C6.24264 10.7501 7.25 11.7575 7.25 13.0001H8.75C8.75 10.9291 7.07107 9.25012 5 9.25012V10.7501Z" fill="#FF0C3E"/>
</svg>
