<svg width="32" height="32" viewBox="0 0 32 32" fill="none" xmlns="http://www.w3.org/2000/svg">
<path d="M15.9993 14.6667C18.9449 14.6667 21.3327 12.2789 21.3327 9.33333C21.3327 6.38781 18.9449 4 15.9993 4C13.0538 4 10.666 6.38781 10.666 9.33333C10.666 12.2789 13.0538 14.6667 15.9993 14.6667Z" fill="#AFB2BE" stroke="#AFB2BE" stroke-width="2" stroke-linecap="round" stroke-linejoin="round"/>
<path d="M8 27V24.3333C8 22.9188 8.5619 21.5623 9.5621 20.5621C10.5623 19.5619 11.9188 19 13.3333 19H18.6667C20.0812 19 21.4377 19.5619 22.4379 20.5621C23.4381 21.5623 24 22.9188 24 24.3333V27" fill="#AFB2BE"/>
<path d="M8 27V24.3333C8 22.9188 8.5619 21.5623 9.5621 20.5621C10.5623 19.5619 11.9188 19 13.3333 19H18.6667C20.0812 19 21.4377 19.5619 22.4379 20.5621C23.4381 21.5623 24 22.9188 24 24.3333V27H8Z" stroke="#AFB2BE" stroke-width="2" stroke-linecap="round" stroke-linejoin="round"/>
</svg>
