<svg width="24" height="24" viewBox="0 0 24 24" fill="none" xmlns="http://www.w3.org/2000/svg">
<path d="M23.0298 2.03033C23.3227 1.73744 23.3227 1.26256 23.0298 0.96967C22.7369 0.676777 22.262 0.676777 21.9691 0.96967L23.0298 2.03033ZM1.70754 11.8698L1.36065 11.2048L1.36065 11.2048L1.70754 11.8698ZM12.1297 22.2919L11.4647 21.945L12.1297 22.2919ZM9.0298 16.0303C9.32269 15.7374 9.32269 15.2626 9.0298 14.9697C8.73691 14.6768 8.26203 14.6768 7.96914 14.9697L9.0298 16.0303ZM1.46296 13.4635L0.932628 13.9938H0.932628L1.46296 13.4635ZM3.49947 15.5L2.96914 16.0303L3.49947 15.5ZM6.0298 14.0303C6.32269 13.7374 6.32269 13.2626 6.0298 12.9697C5.73691 12.6768 5.26203 12.6768 4.96914 12.9697L6.0298 14.0303ZM11.0298 19.0303C11.3227 18.7374 11.3227 18.2626 11.0298 17.9697C10.7369 17.6768 10.262 17.6768 9.96914 17.9697L11.0298 19.0303ZM21.9691 0.96967L13.4691 9.46967L14.5298 10.5303L23.0298 2.03033L21.9691 0.96967ZM9.99946 8.75C12.899 8.75 15.2495 11.1005 15.2495 14H16.7495C16.7495 10.2721 13.7274 7.25 9.99946 7.25V8.75ZM6.28715 10.2877C7.23804 9.33681 8.54951 8.75 9.99946 8.75V7.25C8.13571 7.25 6.44718 8.00634 5.22649 9.22703L6.28715 10.2877ZM14.7724 17.7123L6.28715 9.22703L5.22649 10.2877L13.7118 18.773L14.7724 17.7123ZM15.2495 14C15.2495 15.45 14.6627 16.7614 13.7118 17.7123L14.7724 18.773C15.9931 17.5523 16.7495 15.8638 16.7495 14H15.2495ZM5.40993 9.0924L1.36065 11.2048L2.05443 12.5347L6.10372 10.4223L5.40993 9.0924ZM12.7946 22.6388L14.9071 18.5895L13.5771 17.8958L11.4647 21.945L12.7946 22.6388ZM6.5298 18.5303L9.0298 16.0303L7.96914 14.9697L5.46914 17.4697L6.5298 18.5303ZM0.932628 13.9938L2.96914 16.0303L4.0298 14.9697L1.99329 12.9332L0.932628 13.9938ZM2.96914 16.0303L5.46914 18.5303L6.5298 17.4697L4.0298 14.9697L2.96914 16.0303ZM4.0298 16.0303L6.0298 14.0303L4.96914 12.9697L2.96914 14.9697L4.0298 16.0303ZM5.46914 18.5303L7.96914 21.0303L9.0298 19.9697L6.5298 17.4697L5.46914 18.5303ZM7.96914 21.0303L10.0056 23.0668L11.0663 22.0062L9.0298 19.9697L7.96914 21.0303ZM9.0298 21.0303L11.0298 19.0303L9.96914 17.9697L7.96914 19.9697L9.0298 21.0303ZM11.4647 21.945C11.3866 22.0947 11.1857 22.1256 11.0663 22.0062L10.0056 23.0668C10.8413 23.9025 12.248 23.6867 12.7946 22.6388L11.4647 21.945ZM1.36065 11.2048C0.312813 11.7515 0.0969373 13.1581 0.932628 13.9938L1.99329 12.9332C1.8739 12.8138 1.90474 12.6128 2.05443 12.5347L1.36065 11.2048Z" fill="black"/>
</svg>
