<svg width="23" height="15" viewBox="0 0 23 15" fill="none" xmlns="http://www.w3.org/2000/svg">
<path d="M5.99947 14C4.75174 14 3.55512 13.5259 2.67285 12.682C1.79058 11.8381 1.29492 10.6935 1.29492 9.50001C1.29492 8.30654 1.79058 7.16195 2.67285 6.31803C3.55512 5.47412 4.75174 5.00001 5.99947 5.00001C6.29415 3.68719 7.15623 2.5335 8.39605 1.79273C9.00995 1.42594 9.69811 1.17156 10.4212 1.04412C11.1444 0.91669 11.8883 0.918691 12.6106 1.05001C13.3328 1.18133 14.0193 1.43941 14.6308 1.80949C15.2422 2.17958 15.7667 2.65443 16.1742 3.20694C16.5818 3.75945 16.8644 4.37879 17.006 5.02961C17.1476 5.68043 17.1454 6.34997 16.9995 7.00001H17.9995C18.9277 7.00001 19.818 7.36876 20.4743 8.02514C21.1307 8.68152 21.4995 9.57175 21.4995 10.5C21.4995 11.4283 21.1307 12.3185 20.4743 12.9749C19.818 13.6313 18.9277 14 17.9995 14H5.99947Z" stroke="black" stroke-width="1.5" stroke-linecap="round" stroke-linejoin="round"/>
</svg>
