<svg width="18" height="18" viewBox="0 0 18 18" fill="none" xmlns="http://www.w3.org/2000/svg">
<path opacity="0.6" fill-rule="evenodd" clip-rule="evenodd" d="M1.05546 1.05546C1.57118 0.539731 2.27065 0.25 3 0.25H11C11.7293 0.25 12.4288 0.539731 12.9445 1.05546C13.4603 1.57118 13.75 2.27065 13.75 3V4.25H15C16.5188 4.25 17.75 5.48122 17.75 7V15C17.75 16.5188 16.5188 17.75 15 17.75H7C5.48122 17.75 4.25 16.5188 4.25 15V13.75H3C2.27065 13.75 1.57118 13.4603 1.05546 12.9445C0.539731 12.4288 0.25 11.7293 0.25 11V3C0.25 2.27065 0.539731 1.57118 1.05546 1.05546ZM5.75 13V15C5.75 15.6904 6.30964 16.25 7 16.25H15C15.6904 16.25 16.25 15.6904 16.25 15V7C16.25 6.30964 15.6904 5.75 15 5.75H13H7C6.30964 5.75 5.75 6.30964 5.75 7V13ZM12.25 4.25H7C5.48122 4.25 4.25 5.48122 4.25 7V12.25H3C2.66848 12.25 2.35054 12.1183 2.11612 11.8839C1.8817 11.6495 1.75 11.3315 1.75 11V3C1.75 2.66848 1.8817 2.35054 2.11612 2.11612C2.35054 1.8817 2.66848 1.75 3 1.75H11C11.3315 1.75 11.6495 1.8817 11.8839 2.11612C12.1183 2.35054 12.25 2.66848 12.25 3V4.25Z" fill="black"/>
</svg>
