<svg width="48" height="48" viewBox="0 0 48 48" fill="none" xmlns="http://www.w3.org/2000/svg">
<g opacity="0.4">
<path fill-rule="evenodd" clip-rule="evenodd" d="M38.5111 14.4882C38.1985 14.1756 37.7746 14 37.3326 14H18.9992L10.6659 22.3333C10.2559 22.7917 10.0293 23.3851 10.0293 24C10.0293 24.6149 10.2559 25.2083 10.6659 25.6667L18.9992 34H37.3326C37.7746 34 38.1985 33.8244 38.5111 33.5118C38.8236 33.1993 38.9992 32.7754 38.9992 32.3333V15.6667C38.9992 15.2246 38.8236 14.8007 38.5111 14.4882ZM24.7069 19.9589C24.3163 19.5684 23.6832 19.5684 23.2926 19.9589C22.9021 20.3494 22.9021 20.9826 23.2926 21.3731L25.9189 23.9993L23.2926 26.6256C22.9021 27.0161 22.9021 27.6493 23.2926 28.0398C23.6832 28.4303 24.3163 28.4303 24.7069 28.0398L27.3331 25.4136L29.9593 28.0398C30.3498 28.4303 30.983 28.4303 31.3735 28.0398C31.7641 27.6493 31.7641 27.0161 31.3735 26.6256L28.7473 23.9993L31.3735 21.3731C31.7641 20.9826 31.7641 20.3494 31.3735 19.9589C30.983 19.5684 30.3498 19.5684 29.9593 19.9589L27.3331 22.5851L24.7069 19.9589Z" fill="black"/>
</g>
</svg>
