<svg width="20" height="18" viewBox="0 0 20 18" fill="none" xmlns="http://www.w3.org/2000/svg">
<path d="M10 9V9.01M6 9V9.01M14 9V9.01M1 17L2.3 13.1C1.17644 11.4383 0.769993 9.47042 1.15622 7.56231C1.54244 5.65419 2.69506 3.93567 4.39977 2.72628C6.10447 1.51688 8.24526 0.898901 10.4241 0.987243C12.6029 1.07559 14.6715 1.86424 16.2453 3.20656C17.819 4.54889 18.7909 6.35354 18.9801 8.28499C19.1693 10.2164 18.563 12.1432 17.2739 13.7071C15.9848 15.271 14.1007 16.3656 11.9718 16.7874C9.84293 17.2091 7.6142 16.9293 5.7 16L1 17Z" stroke="white" stroke-width="1.5" stroke-linecap="round" stroke-linejoin="round"/>
</svg>
