<?xml version="1.0" standalone="no"?>
<!DOCTYPE svg PUBLIC "-//W3C//DTD SVG 1.0//EN" "http://www.w3.org/TR/2001/REC-SVG-20010904/DTD/svg10.dtd">
<svg xmlns="http://www.w3.org/2000/svg" xmlns:xlink="http://www.w3.org/1999/xlink" id="body_1" width="9" height="16">

<defs>
    <clipPath  id="1">

    <path id=""  clip-rule="evenodd" transform="matrix(1 0 0 1 0 0)"  d="M7.5 0L7.5 12L7.5 12L0 12L0 12L0 0L0 0L7.5 0z" />    </clipPath>
</defs>

<g transform="matrix(1.3333 0 0 1.3333 0 0)">
	<g clip-path="url(#1)" >
    <path id=""  transform="matrix(1 0 0 -1 0 12)"  d="M3.75 0.75L3.75 0.75L3.75 0.75L6.75 3.75M3.75 0.75L3.75 0.75L3.75 0.75L0.75 3.75M3.75 0.75L3.75 0.75L3.75 0.75L3.75 0.75L3.75 0.75L3.75 11.25" stroke="#1A73E9" stroke-width="1.125" stroke-linecap="square" fill="none" />
	</g>
</g>
</svg>