<svg width="33" height="33" viewBox="0 0 33 33" fill="none" xmlns="http://www.w3.org/2000/svg">
<path fill-rule="evenodd" clip-rule="evenodd" d="M16.9993 5C14.6061 5 12.666 6.9401 12.666 9.33333C12.666 11.7266 14.6061 13.6667 16.9993 13.6667C19.3926 13.6667 21.3327 11.7266 21.3327 9.33333C21.3327 6.9401 19.3926 5 16.9993 5ZM10.666 9.33333C10.666 5.83553 13.5015 3 16.9993 3C20.4972 3 23.3327 5.83553 23.3327 9.33333C23.3327 12.8311 20.4972 15.6667 16.9993 15.6667C13.5015 15.6667 10.666 12.8311 10.666 9.33333ZM14.9291 21C14.512 20.279 13.9857 19.6292 13.3727 19.0731C13.6885 19.0247 14.0093 19 14.3327 19H19.666C21.3457 19 22.9566 19.6673 24.1444 20.855C25.3321 22.0427 25.9993 23.6536 25.9993 25.3333V28C25.9993 28.5523 25.5516 29 24.9993 29C24.4471 29 23.9993 28.5523 23.9993 28V25.3333C23.9993 24.1841 23.5428 23.0819 22.7301 22.2692C21.9175 21.4565 20.8153 21 19.666 21H14.9291Z" fill="white"/>
<path fill-rule="evenodd" clip-rule="evenodd" d="M8 31.5C11.5899 31.5 14.5 28.5898 14.5 25C14.5 21.4101 11.5899 18.5 8 18.5C4.41015 18.5 1.5 21.4101 1.5 25C1.5 28.5898 4.41015 31.5 8 31.5ZM16 25C16 29.4183 12.4183 33 8 33C3.58172 33 0 29.4183 0 25C0 20.5817 3.58172 17 8 17C12.4183 17 16 20.5817 16 25Z" fill="white"/>
<path fill-rule="evenodd" clip-rule="evenodd" d="M7.99998 21.5833C8.41419 21.5833 8.74998 21.9191 8.74998 22.3333V24.25H10.6666C11.0809 24.25 11.4166 24.5858 11.4166 25C11.4166 25.4142 11.0809 25.75 10.6666 25.75H8.74998V27.6667C8.74998 28.0809 8.41419 28.4167 7.99998 28.4167C7.58577 28.4167 7.24998 28.0809 7.24998 27.6667V25.75H5.33331C4.9191 25.75 4.58331 25.4142 4.58331 25C4.58331 24.5858 4.9191 24.25 5.33331 24.25H7.24998V22.3333C7.24998 21.9191 7.58577 21.5833 7.99998 21.5833Z" fill="white"/>
</svg>
