<svg width="33" height="33" viewBox="0 0 33 33" fill="none" xmlns="http://www.w3.org/2000/svg">
<path fill-rule="evenodd" clip-rule="evenodd" d="M14.3342 3C14.8865 3 15.3342 3.44772 15.3342 4V4.68346L26.7404 9.75286C27.1015 9.91336 27.3342 10.2715 27.3342 10.6667C27.3342 11.0619 27.1015 11.42 26.7404 11.5805L15.3342 16.6499V21.7976C14.8822 20.7638 14.2179 19.8441 13.3965 19.0933C13.3758 19.0744 13.3551 19.0557 13.3342 19.037V16.0228C13.3339 16.008 13.3339 15.9931 13.3342 15.9783V5.35506C13.3339 5.34024 13.3339 5.32538 13.3342 5.3105V4C13.3342 3.44772 13.7819 3 14.3342 3ZM14.9307 29H17.0009C17.5532 29 18.0009 28.5523 18.0009 28C18.0009 27.4477 17.5532 27 17.0009 27H15.7489C15.5663 27.7095 15.2888 28.381 14.9307 29ZM15.3342 6.8721V14.4612L23.872 10.6667L15.3342 6.8721Z" fill="white"/>
<path fill-rule="evenodd" clip-rule="evenodd" d="M8 31.5C11.5899 31.5 14.5 28.5898 14.5 25C14.5 21.4101 11.5899 18.5 8 18.5C4.41015 18.5 1.5 21.4101 1.5 25C1.5 28.5898 4.41015 31.5 8 31.5ZM16 25C16 29.4183 12.4183 33 8 33C3.58172 33 0 29.4183 0 25C0 20.5817 3.58172 17 8 17C12.4183 17 16 20.5817 16 25Z" fill="white"/>
<path fill-rule="evenodd" clip-rule="evenodd" d="M7.99998 21.5833C8.41419 21.5833 8.74998 21.9191 8.74998 22.3333V24.25H10.6666C11.0809 24.25 11.4166 24.5858 11.4166 25C11.4166 25.4142 11.0809 25.75 10.6666 25.75H8.74998V27.6667C8.74998 28.0809 8.41419 28.4167 7.99998 28.4167C7.58577 28.4167 7.24998 28.0809 7.24998 27.6667V25.75H5.33331C4.9191 25.75 4.58331 25.4142 4.58331 25C4.58331 24.5858 4.9191 24.25 5.33331 24.25H7.24998V22.3333C7.24998 21.9191 7.58577 21.5833 7.99998 21.5833Z" fill="white"/>
</svg>
