<svg width="33" height="33" viewBox="0 0 33 33" fill="none" xmlns="http://www.w3.org/2000/svg">
<path fill-rule="evenodd" clip-rule="evenodd" d="M17 3C17.5523 3 18 3.44772 18 4V5.80469C19.539 6.23997 20.6667 7.65496 20.6667 9.33333C20.6667 10.4322 20.1833 11.4182 19.4175 12.0902L21.2553 17.6024C21.43 18.1263 21.1469 18.6926 20.623 18.8673C20.099 19.042 19.5327 18.7589 19.358 18.235L17.5965 12.9517C17.4024 12.9835 17.2031 13 17 13C16.7969 13 16.5976 12.9835 16.4035 12.9517L14.1092 19.8347C13.6381 19.2781 13.0923 18.7867 12.4872 18.376L14.5825 12.0902C13.8167 11.4182 13.3333 10.4322 13.3333 9.33333C13.3333 7.65496 14.461 6.23997 16 5.80469V4C16 3.44772 16.4477 3 17 3ZM8.11952 17.0009C7.78603 16.5394 7.48543 16.0516 7.22186 15.5412C6.96844 15.0504 6.36521 14.8581 5.8745 15.1115C5.38378 15.3649 5.19141 15.9681 5.44482 16.4588C5.58863 16.7373 5.74199 17.0103 5.90442 17.2773C6.57231 17.0965 7.27487 17 7.99996 17C8.03988 17 8.07974 17.0003 8.11952 17.0009ZM15.8807 23.6161C16.2502 23.6496 16.6235 23.6667 17 23.6667C18.3711 23.6667 19.7006 23.4391 20.953 23.0201L22.718 28.3162C22.8926 28.8401 23.4589 29.1233 23.9828 28.9487C24.5068 28.7741 24.79 28.2078 24.6154 27.6838L22.8 22.2366C25.2495 20.9651 27.2781 18.9277 28.5549 16.4594C28.8086 15.9689 28.6167 15.3655 28.1261 15.1118C27.6356 14.858 27.0322 15.05 26.7785 15.5406C24.8993 19.1734 21.1413 21.6667 17 21.6667C16.3901 21.6667 15.7886 21.6127 15.2002 21.5092C15.5194 22.1663 15.7512 22.8736 15.8807 23.6161ZM17 7.66667C16.0795 7.66667 15.3333 8.41286 15.3333 9.33333C15.3333 10.2538 16.0795 11 17 11C17.9205 11 18.6667 10.2538 18.6667 9.33333C18.6667 8.41286 17.9205 7.66667 17 7.66667Z" fill="black"/>
<path fill-rule="evenodd" clip-rule="evenodd" d="M8 31.5C11.5899 31.5 14.5 28.5898 14.5 25C14.5 21.4101 11.5899 18.5 8 18.5C4.41015 18.5 1.5 21.4101 1.5 25C1.5 28.5898 4.41015 31.5 8 31.5ZM16 25C16 29.4183 12.4183 33 8 33C3.58172 33 0 29.4183 0 25C0 20.5817 3.58172 17 8 17C12.4183 17 16 20.5817 16 25Z" fill="black"/>
<path fill-rule="evenodd" clip-rule="evenodd" d="M7.99998 21.5833C8.41419 21.5833 8.74998 21.9191 8.74998 22.3333V24.25H10.6666C11.0809 24.25 11.4166 24.5858 11.4166 25C11.4166 25.4142 11.0809 25.75 10.6666 25.75H8.74998V27.6667C8.74998 28.0809 8.41419 28.4167 7.99998 28.4167C7.58577 28.4167 7.24998 28.0809 7.24998 27.6667V25.75H5.33331C4.9191 25.75 4.58331 25.4142 4.58331 25C4.58331 24.5858 4.9191 24.25 5.33331 24.25H7.24998V22.3333C7.24998 21.9191 7.58577 21.5833 7.99998 21.5833Z" fill="black"/>
</svg>
