<svg width="25" height="27" viewBox="0 0 25 27" fill="none" xmlns="http://www.w3.org/2000/svg">
<path d="M21.1993 7.33312C22.4052 9.3347 22.9205 11.6769 22.6659 13.9998V15.3331C22.6644 16.7369 23.0322 18.1165 23.7326 19.3331M6.66593 12.6665C6.66593 11.252 7.22783 9.89541 8.22803 8.89522C9.22822 7.89502 10.5848 7.33312 11.9993 7.33312C13.4138 7.33312 14.7703 7.89502 15.7705 8.89522C16.7707 9.89541 17.3326 11.252 17.3326 12.6665V13.9998C17.3326 16.8847 18.2683 19.6918 19.9993 21.9998M11.9993 12.6665V15.3331C11.995 19.1457 13.1583 22.8681 15.3326 25.9998M6.66593 17.9998C6.9922 20.7862 7.8045 23.4939 9.06593 25.9998M2.5326 23.3331C1.63293 20.3069 1.22772 17.1552 1.3326 13.9998V12.6665C1.32748 10.7916 1.81663 8.94852 2.75074 7.32293C3.68485 5.69734 5.03092 4.34667 6.65332 3.40703C8.27572 2.46739 10.1171 1.97198 11.992 1.97071C13.8668 1.96943 15.7089 2.46235 17.3326 3.39979" stroke="#1A73E9" stroke-width="2" stroke-linecap="round" stroke-linejoin="round"/>
</svg>
