<svg width="24" height="24" viewBox="0 0 24 24" fill="none" xmlns="http://www.w3.org/2000/svg">
<g opacity="0.4">
<path d="M7.60084 11.2803C5.7605 11.2803 4.20588 9.67164 4.20588 7.59038C4.20588 5.55887 5.76891 4 7.60084 4C9.42437 4 10.9958 5.58375 10.9874 7.60697C10.9874 9.67164 9.44118 11.2803 7.60084 11.2803ZM17.3151 11.471C15.7101 11.471 14.3571 10.0614 14.3571 8.25373C14.3571 6.47927 15.7269 5.12769 17.3151 5.12769C18.9034 5.12769 20.2731 6.50415 20.2647 8.27032C20.2647 10.0614 18.9118 11.471 17.3151 11.471ZM21.9454 19H15.6429C16.542 17.7313 15.5756 15.2272 13.6765 13.7512C14.6008 13.1625 15.8025 12.7313 17.3151 12.7313C21.0714 12.7313 23.5 15.4594 23.5 17.7065C23.5 18.5274 23.0798 19 21.9454 19ZM12.8361 18.9917H2.36555C0.978992 18.9917 0.5 18.5771 0.5 17.8143C0.5 15.6833 3.2479 12.7479 7.60084 12.7479C11.9622 12.7479 14.7017 15.6833 14.7017 17.8143C14.7017 18.5771 14.2227 18.9917 12.8361 18.9917Z" fill="black"/>
</g>
</svg>
