<svg width="10" height="12" viewBox="0 0 10 12" fill="none" xmlns="http://www.w3.org/2000/svg">
<path d="M3.02262 11.3336V6.00023H0.658987C0.528644 6.0002 0.401236 5.96108 0.292869 5.88783C0.184502 5.81457 0.100042 5.71046 0.0501656 5.58866C0.000289438 5.46686 -0.0127634 5.33284 0.0126575 5.20354C0.0380784 5.07424 0.100832 4.95546 0.192984 4.86223L4.534 0.471558C4.6576 0.346577 4.82522 0.276367 5 0.276367C5.17478 0.276367 5.3424 0.346577 5.466 0.471558L9.80702 4.86223C9.89917 4.95546 9.96192 5.07424 9.98734 5.20354C10.0128 5.33284 9.99971 5.46686 9.94983 5.58866C9.89996 5.71046 9.8155 5.81457 9.70713 5.88783C9.59876 5.96108 9.47136 6.0002 9.34101 6.00023H6.97738V11.3336C6.97738 11.5104 6.90794 11.6799 6.78433 11.805C6.66072 11.93 6.49307 12.0002 6.31825 12.0002H3.68175C3.50693 12.0002 3.33928 11.93 3.21567 11.805C3.09206 11.6799 3.02262 11.5104 3.02262 11.3336Z" fill="#FF0C3E"/>
</svg>
