<svg width="10" height="12" viewBox="0 0 10 12" fill="none" xmlns="http://www.w3.org/2000/svg">
<path d="M6.73684 4.01786V2.86607C6.73684 2.38393 6.5614 1.97321 6.21053 1.63393C5.87719 1.27679 5.47368 1.09821 5 1.09821C4.52632 1.09821 4.11404 1.27679 3.76316 1.63393C3.42982 1.97321 3.26316 2.38393 3.26316 2.86607V4.01786H6.73684ZM4.21053 8.8125C4.4386 9.04464 4.70175 9.16072 5 9.16072C5.29825 9.16072 5.5614 9.04464 5.78947 8.8125C6.01754 8.58036 6.13158 8.3125 6.13158 8.00893C6.13158 7.70536 6.01754 7.4375 5.78947 7.20536C5.5614 6.97321 5.29825 6.85714 5 6.85714C4.70175 6.85714 4.4386 6.97321 4.21053 7.20536C3.98246 7.4375 3.86842 7.70536 3.86842 8.00893C3.86842 8.3125 3.98246 8.58036 4.21053 8.8125ZM8.36842 4.01786C8.66667 4.01786 8.92982 4.13393 9.1579 4.36607C9.38597 4.58036 9.5 4.83929 9.5 5.14286V10.875C9.5 11.1786 9.38597 11.4464 9.1579 11.6786C8.92982 11.8929 8.66667 12 8.36842 12H1.63158C1.33333 12 1.07018 11.8929 0.842105 11.6786C0.614035 11.4464 0.5 11.1786 0.5 10.875V5.14286C0.5 4.83929 0.614035 4.58036 0.842105 4.36607C1.07018 4.13393 1.33333 4.01786 1.63158 4.01786H2.18421V2.86607C2.18421 2.08036 2.45614 1.41071 3 0.857143C3.5614 0.285714 4.22807 0 5 0C5.77193 0 6.42982 0.285714 6.97368 0.857143C7.53509 1.41071 7.81579 2.08036 7.81579 2.86607V4.01786H8.36842Z" fill="#FFA343"/>
</svg>
