<svg width="48" height="48" viewBox="0 0 48 48" fill="none" xmlns="http://www.w3.org/2000/svg">
<g opacity="0.6" clip-path="url(#clip0)">
<path d="M7.8881 36.5233C7.70075 36.1979 7.27676 36.0894 6.95137 36.2767L5.23567 37.2726V35.2907C5.23567 34.916 4.93 34.6104 4.55531 34.6104C4.18062 34.6104 3.87495 34.916 3.87495 35.2907V37.2726L2.15926 36.2767C1.83387 36.0894 1.40987 36.1979 1.22253 36.5233C1.03518 36.8486 1.14364 37.2726 1.46903 37.46L3.19459 38.4657L1.46903 39.4715C1.14364 39.6588 1.03518 40.0828 1.22253 40.4082C1.40987 40.7336 1.83387 40.8421 2.15926 40.6547L3.87495 39.6588V41.6408C3.87495 42.0154 4.18062 42.3211 4.55531 42.3211C4.93 42.3211 5.23567 42.0154 5.23567 41.6408V39.6588L6.95137 40.6547C7.27676 40.8421 7.70075 40.7336 7.8881 40.4082C8.07544 40.0828 7.96698 39.6588 7.64159 39.4715L5.91604 38.4657L7.64159 37.46C7.96698 37.2628 8.0853 36.8486 7.8881 36.5233Z" fill="black"/>
<path d="M14.1893 40.3994C14.3767 40.7248 14.8007 40.8333 15.1261 40.6459L16.8417 39.65V41.632C16.8417 42.0067 17.1474 42.3123 17.5221 42.3123C17.8968 42.3123 18.2025 42.0067 18.2025 41.632V39.65L19.9182 40.6459C20.2436 40.8333 20.6675 40.7248 20.8549 40.3994C21.0422 40.074 20.9338 39.65 20.6084 39.4627L18.8828 38.4569L20.6084 37.4512C20.9338 37.2638 21.0422 36.8399 20.8549 36.5145C20.6675 36.1891 20.2436 36.0806 19.9182 36.268L18.2025 37.2638V35.2819C18.2025 34.9072 17.8968 34.6016 17.5221 34.6016C17.1474 34.6016 16.8417 34.9072 16.8417 35.2819V37.2638L15.1261 36.2778C14.8007 36.0905 14.3767 36.1989 14.1893 36.5243C14.002 36.8497 14.1104 37.2737 14.4358 37.4611L16.1614 38.4668L14.4358 39.4627C14.1104 39.65 14.002 40.074 14.1893 40.3994Z" fill="black"/>
<path d="M12.9668 45.5656V46.7685C12.9668 47.0545 13.2034 47.2911 13.4894 47.2911H21.565C21.8509 47.2911 22.0876 47.0545 22.0876 46.7685V45.5656C22.0876 45.2796 21.8509 45.043 21.565 45.043H13.4894C13.1936 45.043 12.9668 45.2796 12.9668 45.5656Z" fill="black"/>
<path d="M32.6486 11.942H32.5894V9.26001C32.5894 4.59608 28.7734 0.632236 24.1194 0.711118C19.5935 0.790001 15.9254 4.49748 15.9254 9.04308V9.29945C15.9254 9.684 16.241 9.99953 16.6255 9.99953H18.8638C19.2484 9.99953 19.5639 9.684 19.5639 9.29945V9.22057C19.5639 6.71605 21.4472 4.5172 23.9517 4.35943C26.6732 4.19181 28.9411 6.35122 28.9411 9.03322V11.9322H22.0388V11.942H15.6592C14.476 11.9815 13.5195 12.9379 13.5195 14.131V26.2592C13.5195 27.472 14.5056 28.458 15.7184 28.458H32.6387C33.8515 28.458 34.8375 27.472 34.8375 26.2592V14.1409C34.8474 12.928 33.8614 11.942 32.6486 11.942ZM25.49 20.7473C25.3223 20.8656 25.273 20.9938 25.273 21.191C25.2829 22.0784 25.2829 22.9658 25.273 23.8631C25.2928 24.2378 25.1054 24.5928 24.7702 24.7604C23.9912 25.1548 23.2122 24.6027 23.2122 23.8631C23.2122 23.8631 23.2122 23.8631 23.2122 23.8533C23.2122 22.9658 23.2122 22.0686 23.2122 21.1811C23.2122 21.0036 23.1728 20.8755 23.015 20.7571C22.2065 20.1655 21.9402 19.1499 22.3445 18.2526C22.7389 17.3849 23.6954 16.8722 24.5927 17.0595C25.5984 17.2567 26.2985 18.0751 26.3084 19.071C26.3379 19.7711 26.052 20.343 25.49 20.7473Z" fill="black"/>
<path d="M25.9219 45.5656V46.7685C25.9219 47.0545 26.1585 47.2911 26.4445 47.2911H34.5201C34.806 47.2911 35.0427 47.0545 35.0427 46.7685V45.5656C35.0427 45.2796 34.806 45.043 34.5201 45.043H26.4445C26.1585 45.043 25.9219 45.2796 25.9219 45.5656Z" fill="black"/>
<path d="M27.1464 40.3994C27.3337 40.7248 27.7577 40.8333 28.0831 40.6459L29.7988 39.65V41.632C29.7988 42.0067 30.1044 42.3123 30.4791 42.3123C30.8538 42.3123 31.1595 42.0067 31.1595 41.632V39.65L32.8752 40.6459C33.2006 40.8333 33.6246 40.7248 33.8119 40.3994C33.9993 40.074 33.8908 39.65 33.5654 39.4627L31.8399 38.4569L33.5654 37.4512C33.8908 37.2638 33.9993 36.8399 33.8119 36.5145C33.6246 36.1891 33.2006 36.0806 32.8752 36.268L31.1595 37.2638V35.2819C31.1595 34.9072 30.8538 34.6016 30.4791 34.6016C30.1044 34.6016 29.7988 34.9072 29.7988 35.2819V37.2638L28.0831 36.268C27.7577 36.0806 27.3337 36.1891 27.1464 36.5145C26.959 36.8399 27.0675 37.2638 27.3929 37.4512L29.1184 38.4569L27.3929 39.4627C27.0675 39.65 26.959 40.074 27.1464 40.3994Z" fill="black"/>
<path d="M47.4771 45.043H39.4015C39.1156 45.043 38.8789 45.2796 38.8789 45.5656V46.7685C38.8789 47.0545 39.1156 47.2911 39.4015 47.2911H47.4771C47.7631 47.2911 47.9997 47.0545 47.9997 46.7685V45.5656C47.9997 45.2796 47.7631 45.043 47.4771 45.043Z" fill="black"/>
<path d="M0.522597 47.2911H8.59819C8.88414 47.2911 9.12079 47.0545 9.12079 46.7685V45.5656C9.12079 45.2796 8.88414 45.043 8.59819 45.043H0.522597C0.236648 45.043 0 45.2796 0 45.5656V46.7685C0 47.0545 0.236648 47.2911 0.522597 47.2911Z" fill="black"/>
<path d="M40.1117 40.3994C40.299 40.7248 40.723 40.8333 41.0484 40.6459L42.7641 39.65V41.632C42.7641 42.0067 43.0698 42.3123 43.4445 42.3123C43.8192 42.3123 44.1248 42.0067 44.1248 41.632V39.65L45.8405 40.6459C46.1659 40.8333 46.5899 40.7248 46.7772 40.3994C46.9646 40.074 46.8561 39.65 46.5307 39.4627L44.8052 38.4569L46.5307 37.4512C46.8561 37.2638 46.9646 36.8399 46.7772 36.5145C46.5899 36.1891 46.1659 36.0806 45.8405 36.268L44.1248 37.2638V35.2819C44.1248 34.9072 43.8192 34.6016 43.4445 34.6016C43.0698 34.6016 42.7641 34.9072 42.7641 35.2819V37.2638L41.0484 36.268C40.723 36.0806 40.299 36.1891 40.1117 36.5145C39.9243 36.8399 40.0328 37.2638 40.3582 37.4512L42.0837 38.4569L40.3582 39.4627C40.0328 39.65 39.9145 40.074 40.1117 40.3994Z" fill="black"/>
</g>
<defs>
<clipPath id="clip0">
<rect width="48" height="48" fill="white"/>
</clipPath>
</defs>
</svg>
