<svg width="24" height="24" viewBox="0 0 24 24" fill="none" xmlns="http://www.w3.org/2000/svg">
<path fill-rule="evenodd" clip-rule="evenodd" d="M14.3889 3.27729C14.2619 3.2593 14.132 3.25 14 3.25C12.7412 3.25 11.68 4.09575 11.3535 5.25H4C3.58579 5.25 3.25 5.58579 3.25 6C3.25 6.41421 3.58579 6.75 4 6.75H11.3535C11.68 7.90425 12.7412 8.75 14 8.75C14.6079 8.75 15.1697 8.55278 15.6249 8.21884C15.2144 7.91541 14.8639 7.53532 14.5948 7.09971C14.4179 7.19556 14.2153 7.25 14 7.25C13.3096 7.25 12.75 6.69036 12.75 6C12.75 5.30964 13.3096 4.75 14 4.75C14.0026 4.75 14.0051 4.75001 14.0077 4.75002C14.04 4.22532 14.1735 3.72799 14.3889 3.27729ZM8 9.25C9.25878 9.25 10.32 10.0957 10.6465 11.25H20C20.4142 11.25 20.75 11.5858 20.75 12C20.75 12.4142 20.4142 12.75 20 12.75H10.6465C10.32 13.9043 9.25878 14.75 8 14.75C6.74122 14.75 5.67998 13.9043 5.35352 12.75H4C3.58579 12.75 3.25 12.4142 3.25 12C3.25 11.5858 3.58579 11.25 4 11.25H5.35352C5.67998 10.0957 6.74122 9.25 8 9.25ZM8 10.75C7.30964 10.75 6.75 11.3096 6.75 12C6.75 12.6904 7.30964 13.25 8 13.25C8.69036 13.25 9.25 12.6904 9.25 12C9.25 11.3096 8.69036 10.75 8 10.75ZM17 15.25C18.2588 15.25 19.32 16.0957 19.6465 17.25H20C20.4142 17.25 20.75 17.5858 20.75 18C20.75 18.4142 20.4142 18.75 20 18.75H19.6465C19.32 19.9043 18.2588 20.75 17 20.75C15.7412 20.75 14.68 19.9043 14.3535 18.75H4C3.58579 18.75 3.25 18.4142 3.25 18C3.25 17.5858 3.58579 17.25 4 17.25H14.3535C14.68 16.0957 15.7412 15.25 17 15.25ZM17 16.75C16.3096 16.75 15.75 17.3096 15.75 18C15.75 18.6904 16.3096 19.25 17 19.25C17.6904 19.25 18.25 18.6904 18.25 18C18.25 17.3096 17.6904 16.75 17 16.75Z" fill="black"/>
<path d="M21 5C21 6.65685 19.6569 8 18 8C16.3431 8 15 6.65685 15 5C15 3.34315 16.3431 2 18 2C19.6569 2 21 3.34315 21 5Z" fill="#0067C4"/>
</svg>
