<svg width="24" height="24" viewBox="0 0 24 24" fill="none" xmlns="http://www.w3.org/2000/svg">
<path fill-rule="evenodd" clip-rule="evenodd" d="M13.2268 3.36011C12.322 3.62468 11.6104 4.34183 11.3535 5.24993H4C3.58579 5.24993 3.25 5.58571 3.25 5.99993C3.25 6.41414 3.58579 6.74993 4 6.74993H11.3535C11.68 7.90418 12.7412 8.74993 14 8.74993C14.1023 8.74993 14.2034 8.74433 14.3028 8.73344C13.9099 8.23972 13.5931 7.68264 13.3704 7.08C12.9993 6.86321 12.75 6.46068 12.75 5.99993C12.75 5.71558 12.8449 5.45342 13.0048 5.24339C13.0016 5.16264 13 5.08147 13 4.99993C13 4.43138 13.0791 3.88131 13.2268 3.36011ZM8 9.24993C9.25878 9.24993 10.32 10.0957 10.6465 11.2499H20C20.4142 11.2499 20.75 11.5857 20.75 11.9999C20.75 12.4141 20.4142 12.7499 20 12.7499H10.6465C10.32 13.9042 9.25878 14.7499 8 14.7499C6.74122 14.7499 5.67998 13.9042 5.35352 12.7499H4C3.58579 12.7499 3.25 12.4141 3.25 11.9999C3.25 11.5857 3.58579 11.2499 4 11.2499H5.35352C5.67998 10.0957 6.74122 9.24993 8 9.24993ZM8 10.7499C7.30964 10.7499 6.75 11.3096 6.75 11.9999C6.75 12.6903 7.30964 13.2499 8 13.2499C8.69036 13.2499 9.25 12.6903 9.25 11.9999C9.25 11.3096 8.69036 10.7499 8 10.7499ZM17 15.2499C18.2588 15.2499 19.32 16.0957 19.6465 17.2499H20C20.4142 17.2499 20.75 17.5857 20.75 17.9999C20.75 18.4141 20.4142 18.7499 20 18.7499H19.6465C19.32 19.9042 18.2588 20.7499 17 20.7499C15.7412 20.7499 14.68 19.9042 14.3535 18.7499H4C3.58579 18.7499 3.25 18.4141 3.25 17.9999C3.25 17.5857 3.58579 17.2499 4 17.2499H14.3535C14.68 16.0957 15.7412 15.2499 17 15.2499ZM17 16.7499C16.3096 16.7499 15.75 17.3096 15.75 17.9999C15.75 18.6903 16.3096 19.2499 17 19.2499C17.6904 19.2499 18.25 18.6903 18.25 17.9999C18.25 17.3096 17.6904 16.7499 17 16.7499Z" fill="#3E9CF0"/>
<path d="M23 5C23 7.20914 21.2091 9 19 9C16.7909 9 15 7.20914 15 5C15 2.79086 16.7909 1 19 1C21.2091 1 23 2.79086 23 5Z" fill="#FFAF49"/>
</svg>
