<svg width="24" height="24" viewBox="0 0 24 24" fill="none" xmlns="http://www.w3.org/2000/svg">
<path fill-rule="evenodd" clip-rule="evenodd" d="M13.2268 3.36017C12.322 3.62474 11.6104 4.34189 11.3535 5.24999H4C3.58579 5.24999 3.25 5.58577 3.25 5.99999C3.25 6.4142 3.58579 6.74999 4 6.74999H11.3535C11.68 7.90424 12.7412 8.74999 14 8.74999C14.1023 8.74999 14.2034 8.7444 14.3028 8.7335C13.9099 8.23978 13.5931 7.6827 13.3704 7.08006C12.9993 6.86327 12.75 6.46075 12.75 5.99999C12.75 5.71564 12.8449 5.45348 13.0048 5.24345C13.0016 5.1627 13 5.08153 13 4.99999C13 4.43145 13.0791 3.88137 13.2268 3.36017ZM8 9.24999C9.25878 9.24999 10.32 10.0957 10.6465 11.25H20C20.4142 11.25 20.75 11.5858 20.75 12C20.75 12.4142 20.4142 12.75 20 12.75H10.6465C10.32 13.9042 9.25878 14.75 8 14.75C6.74122 14.75 5.67998 13.9042 5.35352 12.75H4C3.58579 12.75 3.25 12.4142 3.25 12C3.25 11.5858 3.58579 11.25 4 11.25H5.35352C5.67998 10.0957 6.74122 9.24999 8 9.24999ZM8 10.75C7.30964 10.75 6.75 11.3096 6.75 12C6.75 12.6903 7.30964 13.25 8 13.25C8.69036 13.25 9.25 12.6903 9.25 12C9.25 11.3096 8.69036 10.75 8 10.75ZM17 15.25C18.2588 15.25 19.32 16.0957 19.6465 17.25H20C20.4142 17.25 20.75 17.5858 20.75 18C20.75 18.4142 20.4142 18.75 20 18.75H19.6465C19.32 19.9042 18.2588 20.75 17 20.75C15.7412 20.75 14.68 19.9042 14.3535 18.75H4C3.58579 18.75 3.25 18.4142 3.25 18C3.25 17.5858 3.58579 17.25 4 17.25H14.3535C14.68 16.0957 15.7412 15.25 17 15.25ZM17 16.75C16.3096 16.75 15.75 17.3096 15.75 18C15.75 18.6903 16.3096 19.25 17 19.25C17.6904 19.25 18.25 18.6903 18.25 18C18.25 17.3096 17.6904 16.75 17 16.75Z" fill="#1A73E9"/>
<path d="M23 5C23 7.20914 21.2091 9 19 9C16.7909 9 15 7.20914 15 5C15 2.79086 16.7909 1 19 1C21.2091 1 23 2.79086 23 5Z" fill="#ED7309"/>
</svg>
