<svg width="24" height="24" viewBox="0 0 24 24" fill="none" xmlns="http://www.w3.org/2000/svg">
<path fill-rule="evenodd" clip-rule="evenodd" d="M16.6465 5.25C16.32 4.09575 15.2588 3.25 14 3.25C12.7412 3.25 11.68 4.09575 11.3535 5.25H4C3.58579 5.25 3.25 5.58579 3.25 6C3.25 6.41421 3.58579 6.75 4 6.75H11.3535C11.68 7.90425 12.7412 8.75 14 8.75C15.2588 8.75 16.32 7.90425 16.6465 6.75H20C20.4142 6.75 20.75 6.41421 20.75 6C20.75 5.58579 20.4142 5.25 20 5.25H16.6465ZM14 4.75C13.3096 4.75 12.75 5.30964 12.75 6C12.75 6.69036 13.3096 7.25 14 7.25C14.6904 7.25 15.25 6.69036 15.25 6C15.25 5.30964 14.6904 4.75 14 4.75Z" fill="#1A73E9"/>
<path fill-rule="evenodd" clip-rule="evenodd" d="M8 9.25C9.25878 9.25 10.32 10.0957 10.6465 11.25H20C20.4142 11.25 20.75 11.5858 20.75 12C20.75 12.4142 20.4142 12.75 20 12.75H10.6465C10.32 13.9043 9.25878 14.75 8 14.75C6.74122 14.75 5.67998 13.9043 5.35352 12.75H4C3.58579 12.75 3.25 12.4142 3.25 12C3.25 11.5858 3.58579 11.25 4 11.25H5.35352C5.67998 10.0957 6.74122 9.25 8 9.25ZM8 10.75C7.30964 10.75 6.75 11.3096 6.75 12C6.75 12.6904 7.30964 13.25 8 13.25C8.69036 13.25 9.25 12.6904 9.25 12C9.25 11.3096 8.69036 10.75 8 10.75Z" fill="#1A73E9"/>
<path fill-rule="evenodd" clip-rule="evenodd" d="M19.6465 17.25C19.32 16.0957 18.2588 15.25 17 15.25C15.7412 15.25 14.68 16.0957 14.3535 17.25H4C3.58579 17.25 3.25 17.5858 3.25 18C3.25 18.4142 3.58579 18.75 4 18.75H14.3535C14.68 19.9043 15.7412 20.75 17 20.75C18.2588 20.75 19.32 19.9043 19.6465 18.75H20C20.4142 18.75 20.75 18.4142 20.75 18C20.75 17.5858 20.4142 17.25 20 17.25H19.6465ZM15.75 18C15.75 17.3096 16.3096 16.75 17 16.75C17.6904 16.75 18.25 17.3096 18.25 18C18.25 18.6904 17.6904 19.25 17 19.25C16.3096 19.25 15.75 18.6904 15.75 18Z" fill="#1A73E9"/>
</svg>
