<svg width="16" height="16" viewBox="0 0 16 16" fill="none" xmlns="http://www.w3.org/2000/svg">
<circle cx="8" cy="8" r="8" fill="white"/>
<path d="M9.54386 6.34821V5.38839C9.54386 4.98661 9.38791 4.64435 9.07602 4.36161C8.77973 4.06399 8.42105 3.91518 8 3.91518C7.57895 3.91518 7.21248 4.06399 6.90058 4.36161C6.60429 4.64435 6.45614 4.98661 6.45614 5.38839V6.34821H9.54386ZM7.29825 10.3438C7.50097 10.5372 7.73489 10.6339 8 10.6339C8.26511 10.6339 8.49903 10.5372 8.70175 10.3438C8.90448 10.1503 9.00585 9.92708 9.00585 9.67411C9.00585 9.42113 8.90448 9.19792 8.70175 9.00446C8.49903 8.81101 8.26511 8.71429 8 8.71429C7.73489 8.71429 7.50097 8.81101 7.29825 9.00446C7.09552 9.19792 6.99415 9.42113 6.99415 9.67411C6.99415 9.92708 7.09552 10.1503 7.29825 10.3438ZM10.9942 6.34821C11.2593 6.34821 11.4932 6.44494 11.6959 6.63839C11.8986 6.81696 12 7.03274 12 7.28571V12.0625C12 12.3155 11.8986 12.5387 11.6959 12.7321C11.4932 12.9107 11.2593 13 10.9942 13H5.00585C4.74074 13 4.50682 12.9107 4.30409 12.7321C4.10136 12.5387 4 12.3155 4 12.0625V7.28571C4 7.03274 4.10136 6.81696 4.30409 6.63839C4.50682 6.44494 4.74074 6.34821 5.00585 6.34821H5.49708V5.38839C5.49708 4.73363 5.73879 4.1756 6.22222 3.71429C6.72125 3.2381 7.31384 3 8 3C8.68616 3 9.27096 3.2381 9.75439 3.71429C10.2534 4.1756 10.5029 4.73363 10.5029 5.38839V6.34821H10.9942Z" fill="#FFA343"/>
</svg>
