<svg width="20" height="20" viewBox="0 0 20 20" fill="none" xmlns="http://www.w3.org/2000/svg">
<path d="M1 19V17C1 15.9391 1.42143 14.9217 2.17157 14.1716C2.92172 13.4214 3.93913 13 5 13H9C10.0609 13 11.0783 13.4214 11.8284 14.1716C12.5786 14.9217 13 15.9391 13 17V19M14 1.13C14.8604 1.3503 15.623 1.8507 16.1676 2.55231C16.7122 3.25392 17.0078 4.11683 17.0078 5.005C17.0078 5.89317 16.7122 6.75608 16.1676 7.45769C15.623 8.1593 14.8604 8.6597 14 8.88M19 19V17C18.9949 16.1172 18.6979 15.2608 18.1553 14.5644C17.6126 13.868 16.8548 13.3707 16 13.15M11 5C11 7.20914 9.20914 9 7 9C4.79086 9 3 7.20914 3 5C3 2.79086 4.79086 1 7 1C9.20914 1 11 2.79086 11 5Z" stroke="black" stroke-width="1.5" stroke-linecap="round" stroke-linejoin="round"/>
</svg>
