<svg width="16" height="14" viewBox="0 0 16 14" fill="none" xmlns="http://www.w3.org/2000/svg">
<path d="M3.00065 4.50033H8.00065M1.33398 1.16699H4.66732M3.00065 1.16699V10.3337C3.00065 10.5547 3.08845 10.7666 3.24473 10.9229C3.40101 11.0792 3.61297 11.167 3.83398 11.167H8.00065M8.83398 2.83366H13.834C14.2942 2.83366 14.6673 3.20675 14.6673 3.66699V5.33366C14.6673 5.7939 14.2942 6.16699 13.834 6.16699H8.83398C8.37375 6.16699 8.00065 5.7939 8.00065 5.33366V3.66699C8.00065 3.20675 8.37375 2.83366 8.83398 2.83366ZM8.83398 9.50033H13.834C14.2942 9.50033 14.6673 9.87342 14.6673 10.3337V12.0003C14.6673 12.4606 14.2942 12.8337 13.834 12.8337H8.83398C8.37375 12.8337 8.00065 12.4606 8.00065 12.0003V10.3337C8.00065 9.87342 8.37375 9.50033 8.83398 9.50033Z" stroke="black" stroke-linecap="round" stroke-linejoin="round"/>
</svg>
