<svg width="115" height="48" viewBox="0 0 115 48" fill="none" xmlns="http://www.w3.org/2000/svg">
<path d="M12.2137 8.26172C12.2137 9.65495 11.9728 10.8789 11.491 11.9336C11.0092 12.9818 10.3191 13.7891 9.4207 14.3555C8.52877 14.9154 7.50013 15.1953 6.33476 15.1953C5.18242 15.1953 4.15377 14.9154 3.24883 14.3555C2.35039 13.7891 1.65377 12.985 1.15898 11.9434C0.6707 10.9017 0.423304 9.70052 0.416794 8.33984V7.53906C0.416794 6.15234 0.660934 4.92839 1.14922 3.86719C1.64401 2.80599 2.33737 1.99544 3.22929 1.43555C4.12773 0.869141 5.15638 0.585938 6.31523 0.585938C7.47409 0.585938 8.49948 0.865885 9.3914 1.42578C10.2898 1.97917 10.9832 2.77995 11.4715 3.82812C11.9598 4.86979 12.2072 6.08398 12.2137 7.4707V8.26172ZM9.74297 7.51953C9.74297 5.94401 9.44349 4.73633 8.84453 3.89648C8.25208 3.05664 7.40898 2.63672 6.31523 2.63672C5.24752 2.63672 4.41093 3.05664 3.80547 3.89648C3.20651 4.72982 2.90052 5.91146 2.8875 7.44141V8.26172C2.8875 9.82422 3.19023 11.0319 3.7957 11.8848C4.40768 12.7376 5.25403 13.1641 6.33476 13.1641C7.42851 13.1641 8.26836 12.7474 8.85429 11.9141C9.44674 11.0807 9.74297 9.86328 9.74297 8.26172V7.51953ZM26.1039 15H23.6332L17.2953 4.91211V15H14.8246V0.78125H17.2953L23.6527 10.9082V0.78125H26.1039V15ZM31.6445 13.0273H38.0996V15H29.1738V0.78125H31.6445V13.0273ZM42.0484 7.51953L45.3199 0.78125H48.0543L43.2887 9.76562V15H40.8082V9.76562L36.0328 0.78125H38.7769L42.0484 7.51953ZM60.8019 8.26172C60.8019 9.65495 60.5611 10.8789 60.0793 11.9336C59.5975 12.9818 58.9074 13.7891 58.009 14.3555C57.117 14.9154 56.0884 15.1953 54.923 15.1953C53.7707 15.1953 52.742 14.9154 51.8371 14.3555C50.9387 13.7891 50.242 12.985 49.7473 11.9434C49.259 10.9017 49.0116 9.70052 49.0051 8.33984V7.53906C49.0051 6.15234 49.2492 4.92839 49.7375 3.86719C50.2323 2.80599 50.9256 1.99544 51.8176 1.43555C52.716 0.869141 53.7446 0.585938 54.9035 0.585938C56.0624 0.585938 57.0877 0.865885 57.9797 1.42578C58.8781 1.97917 59.5715 2.77995 60.0598 3.82812C60.548 4.86979 60.7954 6.08398 60.8019 7.4707V8.26172ZM58.3312 7.51953C58.3312 5.94401 58.0318 4.73633 57.4328 3.89648C56.8404 3.05664 55.9973 2.63672 54.9035 2.63672C53.8358 2.63672 52.9992 3.05664 52.3937 3.89648C51.7948 4.72982 51.4888 5.91146 51.4758 7.44141V8.26172C51.4758 9.82422 51.7785 11.0319 52.384 11.8848C52.996 12.7376 53.8423 13.1641 54.923 13.1641C56.0168 13.1641 56.8566 12.7474 57.4426 11.9141C58.035 11.0807 58.3312 9.86328 58.3312 8.26172V7.51953ZM71.6062 8.97461H65.8836V15H63.4129V0.78125H72.4461V2.77344H65.8836V7.00195H71.6062V8.97461ZM82.7523 8.97461H77.0297V15H74.559V0.78125H83.5922V2.77344H77.0297V7.00195H82.7523V8.97461ZM88.3125 15H85.8516V0.78125H88.3125V15ZM102.349 10.3711C102.206 11.888 101.646 13.0729 100.67 13.9258C99.693 14.7721 98.3941 15.1953 96.773 15.1953C95.6402 15.1953 94.6409 14.9284 93.775 14.3945C92.9156 13.8542 92.2516 13.0892 91.7828 12.0996C91.3141 11.11 91.0699 9.96094 91.0504 8.65234V7.32422C91.0504 5.98307 91.288 4.80143 91.7633 3.7793C92.2385 2.75716 92.9189 1.9694 93.8043 1.41602C94.6962 0.86263 95.7249 0.585938 96.8902 0.585938C98.4592 0.585938 99.7223 1.01237 100.679 1.86523C101.636 2.7181 102.193 3.92253 102.349 5.47852H99.8883C99.7711 4.45638 99.4716 3.7207 98.9898 3.27148C98.5146 2.81576 97.8147 2.58789 96.8902 2.58789C95.816 2.58789 94.9892 2.98177 94.4098 3.76953C93.8368 4.55078 93.5439 5.69987 93.5309 7.2168V8.47656C93.5309 10.013 93.8043 11.1849 94.3512 11.9922C94.9046 12.7995 95.7118 13.2031 96.773 13.2031C97.7431 13.2031 98.4723 12.985 98.9605 12.5488C99.4488 12.1126 99.7581 11.3867 99.8883 10.3711H102.349ZM113.027 8.65234H107.187V13.0273H114.013V15H104.716V0.78125H113.945V2.77344H107.187V6.69922H113.027V8.65234ZM23.35 37.7168V43H20.8793V28.7812H26.3188C27.9073 28.7812 29.1671 29.1947 30.0981 30.0215C31.0356 30.8483 31.5043 31.9421 31.5043 33.3027C31.5043 34.696 31.0453 35.7799 30.1273 36.5547C29.2159 37.3294 27.9366 37.7168 26.2895 37.7168H23.35ZM23.35 35.7344H26.3188C27.1977 35.7344 27.8682 35.5293 28.3305 35.1191C28.7927 34.7025 29.0238 34.1035 29.0238 33.3223C29.0238 32.554 28.7895 31.9421 28.3207 31.4863C27.852 31.0241 27.2074 30.7865 26.3871 30.7734H23.35V35.7344ZM39.125 34.6016C38.8125 34.5495 38.4902 34.5234 38.1582 34.5234C37.071 34.5234 36.3385 34.9401 35.9609 35.7734V43H33.5879V32.4336H35.8535L35.9121 33.6152C36.485 32.6973 37.2793 32.2383 38.2949 32.2383C38.6335 32.2383 38.9134 32.2839 39.1348 32.375L39.125 34.6016ZM39.9781 37.6191C39.9781 36.584 40.1832 35.653 40.5934 34.8262C41.0035 33.9928 41.5797 33.3548 42.3219 32.9121C43.0641 32.4629 43.9169 32.2383 44.8805 32.2383C46.3063 32.2383 47.4619 32.6973 48.3473 33.6152C49.2392 34.5332 49.721 35.7507 49.7926 37.2676L49.8024 37.8242C49.8024 38.8659 49.6005 39.7969 49.1969 40.6172C48.7997 41.4375 48.2268 42.0723 47.4781 42.5215C46.7359 42.9707 45.8766 43.1953 44.9 43.1953C43.4091 43.1953 42.2145 42.7005 41.316 41.7109C40.4241 40.7148 39.9781 39.39 39.9781 37.7363V37.6191ZM42.3512 37.8242C42.3512 38.9115 42.5758 39.7643 43.025 40.3828C43.4742 40.9948 44.0992 41.3008 44.9 41.3008C45.7008 41.3008 46.3225 40.9883 46.7652 40.3633C47.2145 39.7383 47.4391 38.8236 47.4391 37.6191C47.4391 36.5514 47.208 35.7051 46.7457 35.0801C46.29 34.4551 45.6682 34.1426 44.8805 34.1426C44.1057 34.1426 43.4905 34.4518 43.0348 35.0703C42.579 35.6823 42.3512 36.6003 42.3512 37.8242ZM54.4348 32.4336V43.9375C54.4348 45.0182 54.1646 45.8418 53.6242 46.4082C53.0904 46.9811 52.3059 47.2676 51.2707 47.2676C50.8345 47.2676 50.4146 47.2122 50.0109 47.1016V45.2266C50.2583 45.2852 50.5383 45.3145 50.8508 45.3145C51.6385 45.3145 52.0422 44.8848 52.0617 44.0254V32.4336H54.4348ZM51.8566 29.6895C51.8566 29.3249 51.9706 29.0221 52.1984 28.7812C52.4328 28.5404 52.7648 28.4199 53.1945 28.4199C53.6242 28.4199 53.9563 28.5404 54.1906 28.7812C54.425 29.0221 54.5422 29.3249 54.5422 29.6895C54.5422 30.0475 54.425 30.347 54.1906 30.5879C53.9563 30.8223 53.6242 30.9395 53.1945 30.9395C52.7648 30.9395 52.4328 30.8223 52.1984 30.5879C51.9706 30.347 51.8566 30.0475 51.8566 29.6895ZM61.782 43.1953C60.2781 43.1953 59.0574 42.7233 58.1199 41.7793C57.1889 40.8288 56.7234 39.5658 56.7234 37.9902V37.6973C56.7234 36.6426 56.9253 35.7018 57.3289 34.875C57.7391 34.0417 58.312 33.3939 59.0477 32.9316C59.7833 32.4694 60.6037 32.2383 61.5086 32.2383C62.9474 32.2383 64.0574 32.6973 64.8387 33.6152C65.6264 34.5332 66.0203 35.832 66.0203 37.5117V38.4688H59.116C59.1876 39.3411 59.4774 40.0312 59.9852 40.5391C60.4995 41.0469 61.144 41.3008 61.9188 41.3008C63.006 41.3008 63.8914 40.8613 64.575 39.9824L65.8543 41.2031C65.4311 41.8346 64.8647 42.3262 64.1551 42.6777C63.452 43.0228 62.6609 43.1953 61.782 43.1953ZM61.4988 34.1426C60.8478 34.1426 60.3205 34.3704 59.9168 34.8262C59.5197 35.2819 59.2658 35.9167 59.1551 36.7305H63.6766V36.5547C63.6245 35.7604 63.4129 35.1615 63.0418 34.7578C62.6707 34.3477 62.1564 34.1426 61.4988 34.1426ZM72.3617 41.3008C72.9542 41.3008 73.4457 41.1283 73.8363 40.7832C74.227 40.4382 74.4353 40.0117 74.4613 39.5039H76.6977C76.6716 40.1615 76.4665 40.7767 76.0824 41.3496C75.6983 41.916 75.1775 42.3652 74.5199 42.6973C73.8624 43.0293 73.1527 43.1953 72.391 43.1953C70.9132 43.1953 69.7413 42.7168 68.8754 41.7598C68.0095 40.8027 67.5766 39.4811 67.5766 37.7949V37.5508C67.5766 35.9427 68.0063 34.6569 68.8656 33.6934C69.725 32.7233 70.8969 32.2383 72.3813 32.2383C73.6378 32.2383 74.6599 32.6061 75.4477 33.3418C76.2419 34.071 76.6586 35.0312 76.6977 36.2227H74.4613C74.4353 35.6172 74.227 35.1191 73.8363 34.7285C73.4522 34.3379 72.9607 34.1426 72.3617 34.1426C71.5935 34.1426 71.001 34.4225 70.5844 34.9824C70.1677 35.5358 69.9561 36.3789 69.9496 37.5117V37.8926C69.9496 39.0384 70.1547 39.8945 70.5648 40.4609C70.9815 41.0208 71.5805 41.3008 72.3617 41.3008ZM81.6133 29.8652V32.4336H83.4785V34.1914H81.6133V40.0898C81.6133 40.4935 81.6914 40.7865 81.8477 40.9688C82.0104 41.1445 82.2969 41.2324 82.707 41.2324C82.9805 41.2324 83.2572 41.1999 83.5371 41.1348V42.9707C82.9967 43.1204 82.4759 43.1953 81.9746 43.1953C80.1517 43.1953 79.2402 42.1895 79.2402 40.1777V34.1914H77.502V32.4336H79.2402V29.8652H81.6133ZM91.3727 40.1289C91.3727 39.7057 91.1969 39.3835 90.8453 39.1621C90.5003 38.9408 89.9241 38.7454 89.1168 38.5762C88.3095 38.4069 87.6357 38.1921 87.0953 37.9316C85.9104 37.3587 85.318 36.5286 85.318 35.4414C85.318 34.5299 85.7021 33.7682 86.4703 33.1562C87.2386 32.5443 88.2151 32.2383 89.4 32.2383C90.663 32.2383 91.6819 32.5508 92.4566 33.1758C93.2379 33.8008 93.6285 34.6113 93.6285 35.6074H91.2555C91.2555 35.1517 91.0862 34.7741 90.7477 34.4746C90.4091 34.1686 89.9599 34.0156 89.4 34.0156C88.8792 34.0156 88.4527 34.1361 88.1207 34.377C87.7952 34.6178 87.6324 34.9401 87.6324 35.3438C87.6324 35.7083 87.7854 35.9915 88.0914 36.1934C88.3974 36.3952 89.0159 36.6003 89.9469 36.8086C90.8779 37.0104 91.607 37.2546 92.1344 37.541C92.6682 37.821 93.0621 38.1595 93.316 38.5566C93.5764 38.9538 93.7066 39.4355 93.7066 40.002C93.7066 40.9525 93.3128 41.724 92.525 42.3164C91.7372 42.9023 90.7053 43.1953 89.4293 43.1953C88.5634 43.1953 87.7919 43.0391 87.1149 42.7266C86.4378 42.4141 85.9104 41.9844 85.5328 41.4375C85.1552 40.8906 84.9664 40.3014 84.9664 39.6699H87.2711C87.3037 40.2298 87.5152 40.6628 87.9059 40.9688C88.2965 41.2682 88.8141 41.418 89.4586 41.418C90.0836 41.418 90.5589 41.3008 90.8844 41.0664C91.2099 40.8255 91.3727 40.513 91.3727 40.1289Z" fill="black"/>
</svg>
