<svg width="48" height="48" viewBox="0 0 48 48" fill="none" xmlns="http://www.w3.org/2000/svg">
<g opacity="0.6">
<path d="M26 15V19C26 19.2652 26.1054 19.5196 26.2929 19.7071C26.4804 19.8946 26.7348 20 27 20H31M26 15H19C18.4696 15 17.9609 15.2107 17.5858 15.5858C17.2107 15.9609 17 16.4696 17 17V31C17 31.5304 17.2107 32.0391 17.5858 32.4142C17.9609 32.7893 18.4696 33 19 33H29C29.5304 33 30.0391 32.7893 30.4142 32.4142C30.7893 32.0391 31 31.5304 31 31V20M26 15L31 20M21 21H22M21 25H27M21 29H27" stroke="black" stroke-width="1.5" stroke-linecap="round" stroke-linejoin="round"/>
</g>
</svg>
