<svg width="24" height="24" viewBox="0 0 24 24" fill="none" xmlns="http://www.w3.org/2000/svg">
<path d="M3 21V19C3 17.9391 3.42143 16.9217 4.17157 16.1716C4.92172 15.4214 5.93913 15 7 15H11C12.0609 15 13.0783 15.4214 13.8284 16.1716C14.5786 16.9217 15 17.9391 15 19V21M16 3.13C16.8604 3.3503 17.623 3.8507 18.1676 4.55231C18.7122 5.25392 19.0078 6.11683 19.0078 7.005C19.0078 7.89317 18.7122 8.75608 18.1676 9.45769C17.623 10.1593 16.8604 10.6597 16 10.88M21 21V19C20.9949 18.1172 20.6979 17.2608 20.1553 16.5644C19.6126 15.868 18.8548 15.3707 18 15.15M13 7C13 9.20914 11.2091 11 9 11C6.79086 11 5 9.20914 5 7C5 4.79086 6.79086 3 9 3C11.2091 3 13 4.79086 13 7Z" stroke="black" stroke-width="1.5" stroke-linecap="round" stroke-linejoin="round"/>
</svg>
