<svg width="20" height="20" viewBox="0 0 20 20" fill="none" xmlns="http://www.w3.org/2000/svg">
<path fill-rule="evenodd" clip-rule="evenodd" d="M13.7503 5.83333C12.8047 5.83333 11.667 5.38333 11.667 4.58333V0H3.32184C2.40576 0 1.66699 0.606061 1.66699 1.35758V18.6424C1.66699 19.3939 2.40576 20 3.32184 20H16.6788C17.5949 20 18.3337 19.3939 18.3337 18.6424V5.83333H13.7503ZM14.167 5H18.3337L12.5003 0V3.5C12.5003 4.36103 13.3207 5 14.167 5ZM14.0003 9.16667H6.00031H5.00031L5.00033 8.33333H14.0003H15.0003V9.16667H14.0003ZM14.0003 11.6667H15.0003V12.5H14.0003H6.00033H5.00033V11.6667H6.00033H14.0003ZM14.0003 15H15.0003V15.8333H14.0003H6.00033H5.00033V15H6.00033H14.0003Z" fill="#3580C1"/>
</svg>
