<svg width="24" height="24" viewBox="0 0 24 24" fill="none" xmlns="http://www.w3.org/2000/svg">
<path fill-rule="evenodd" clip-rule="evenodd" d="M17 6H22L15 0V4.2C15 5.23324 15.9844 6 17 6ZM16.5 7.00001C15.3652 7.00001 14 6.46001 14 5.50001V5.78165e-06H3.98582C2.88653 5.78165e-06 2 0.727279 2 1.6291V22.3709C2 23.2727 2.88653 24 3.98582 24H20.0142C21.1135 24 22 23.2727 22 22.3709V7.00001H16.5ZM6 9H18V19H6V9ZM11 10H7V13H11V10ZM11 14H7V18H11V14ZM12 14H17V18H12V14ZM17 10H12V13H17V10Z" fill="#40865C"/>
</svg>
