<svg width="20" height="20" viewBox="0 0 20 20" fill="none" xmlns="http://www.w3.org/2000/svg">
<rect width="20" height="20" fill="white"/>
<path fill-rule="evenodd" clip-rule="evenodd" d="M14.167 5H18.3336L12.5003 0V3.5C12.5003 4.36103 13.3207 5 14.167 5ZM13.7503 5.83334C12.8047 5.83334 11.667 5.38334 11.667 4.58334V5.78165e-06H3.32184C2.40576 5.78165e-06 1.66699 0.606066 1.66699 1.35758V18.6424C1.66699 19.3939 2.40576 20 3.32184 20H16.6788C17.5949 20 18.3337 19.3939 18.3337 18.6424V5.83334H13.7503ZM5.00033 7.5H15.0003V15.8333H5.00033V7.5ZM9.16699 8.33334H5.83366V10.8333H9.16699V8.33334ZM9.16699 11.6667H5.83366V15H9.16699V11.6667ZM10.0003 11.6667H14.167V15H10.0003V11.6667ZM14.167 8.33334H10.0003V10.8333H14.167V8.33334Z" fill="#40865C"/>
</svg>
