<svg width="24" height="24" viewBox="0 0 24 24" fill="none" xmlns="http://www.w3.org/2000/svg">
<path d="M3.75 7.60294V4.75C3.75 4.19772 4.19772 3.75 4.75 3.75H9.54412C10.0964 3.75 10.5441 4.19772 10.5441 4.75V7.60294C10.5441 8.15523 10.0964 8.60294 9.54412 8.60294H4.75C4.19772 8.60294 3.75 8.15523 3.75 7.60294Z" stroke="white" stroke-width="2"/>
<path d="M9.54412 11.5147H4.75C4.19772 11.5147 3.75 11.9624 3.75 12.5147V19.25C3.75 19.8023 4.19772 20.25 4.75 20.25H9.54412C10.0964 20.25 10.5441 19.8023 10.5441 19.25V12.5147C10.5441 11.9624 10.0964 11.5147 9.54412 11.5147Z" stroke="white" stroke-width="2"/>
<path d="M13.4559 16.3971V19.25C13.4559 19.8023 13.9036 20.25 14.4559 20.25H19.25C19.8023 20.25 20.25 19.8023 20.25 19.25V16.3971C20.25 15.8448 19.8023 15.3971 19.25 15.3971H14.4559C13.9036 15.3971 13.4559 15.8448 13.4559 16.3971Z" stroke="white" stroke-width="2"/>
<path d="M19.25 12.4853H14.4559C13.9036 12.4853 13.4559 12.0376 13.4559 11.4853V4.75C13.4559 4.19772 13.9036 3.75 14.4559 3.75H19.25C19.8023 3.75 20.25 4.19772 20.25 4.75V11.4853C20.25 12.0376 19.8023 12.4853 19.25 12.4853Z" stroke="white" stroke-width="2"/>
</svg>
