<svg width="24" height="24" viewBox="0 0 24 24" fill="none" xmlns="http://www.w3.org/2000/svg">
<g clip-path="url(#clip0)">
<path d="M3.5 7.5V4.5C3.5 3.94772 3.94772 3.5 4.5 3.5H9.5C10.0523 3.5 10.5 3.94772 10.5 4.5V7.5C10.5 8.05228 10.0523 8.5 9.5 8.5H4.5C3.94772 8.5 3.5 8.05228 3.5 7.5Z" stroke="#1A73E9" stroke-width="1.5"/>
<path d="M9.5 11.5H4.5C3.94772 11.5 3.5 11.9477 3.5 12.5V19.5C3.5 20.0523 3.94772 20.5 4.5 20.5H9.5C10.0523 20.5 10.5 20.0523 10.5 19.5V12.5C10.5 11.9477 10.0523 11.5 9.5 11.5Z" stroke="#1A73E9" stroke-width="1.5"/>
<path d="M13.5 16.5V19.5C13.5 20.0523 13.9477 20.5 14.5 20.5H19.5C20.0523 20.5 20.5 20.0523 20.5 19.5V16.5C20.5 15.9477 20.0523 15.5 19.5 15.5H14.5C13.9477 15.5 13.5 15.9477 13.5 16.5Z" stroke="#1A73E9" stroke-width="1.5"/>
<path d="M19.5 12.5H14.5C13.9477 12.5 13.5 12.0523 13.5 11.5V4.5C13.5 3.94772 13.9477 3.5 14.5 3.5H19.5C20.0523 3.5 20.5 3.94772 20.5 4.5V11.5C20.5 12.0523 20.0523 12.5 19.5 12.5Z" stroke="#1A73E9" stroke-width="1.5"/>
</g>
<defs>
<clipPath id="clip0">
<rect width="24" height="24" fill="white"/>
</clipPath>
</defs>
</svg>
